<?xml version="1.0" encoding="utf-8"?>
<!-- Generator: Adobe Illustrator 22.0.1, SVG Export Plug-In . SVG Version: 6.00 Build 0)  -->
<svg version="1.1" id="DOUBLE" xmlns="http://www.w3.org/2000/svg" xmlns:xlink="http://www.w3.org/1999/xlink" x="0px" y="0px"
	 viewBox="0 0 841.9 595.3" style="enable-background:new 0 0 841.9 595.3;" xml:space="preserve">
<style type="text/css">
	.st0{fill:#FFFFFF;}
</style>
<g>
	<path d="M666.4,289.3c0.1,3,0.3,5.8,0.3,8.6c0,2.8-0.2,5.6-0.3,8.5c0.5,0,0.9,0,1.3,0c20.1,0,40.2,0,60.3,0c0.7,0,1.4,0,2.1,0
		c0.3,0,0.6,0,0.9,0.3c0.1,0.2,0.5,0.1,0.8,0.1c4.9,0,9.8,0,14.7,0c0.9,0,1.7,0.1,2.6,0.1c-0.2,1.1-0.4,2.2-0.6,3.2
		c-0.2,1-0.4,1.9-0.6,2.9c-0.3,1.7-1,3.3-1.5,5c-0.8,2.3-1.9,4.4-3.5,6.2c-0.6,0.7-1.2,1.2-2.1,1.5c-1.4,0.5-2.7,0.7-4.2,0.7
		c-36,0-72.1,0-108.1,0c-0.9,0-1.5-0.2-2.2-0.8c-1.3-1.2-2.7-2.3-4-3.5c-0.4-0.3-0.7-0.5-1.2-0.4c-1.2,0-2.4,0-3.6,0
		c-0.6,0-1.1-0.1-1.5-0.6c-0.3-0.3-0.6-0.5-0.8-0.7c-0.6,0.4-1.2,0.7-1.7,1c-0.2,0.1-0.4,0.1-0.7,0.2c-0.2,0-0.4,0-0.5,0
		c-0.8,0-1.6,0-2.4,0c-0.9-0.1-1.2-1-2-1.3c-0.9,0.8-1.7,1.4-3,1.3c-2.1-0.1-4.2,0-6.3,0c-0.5,0-0.9-0.1-1.3-0.5
		c-0.3-0.4-0.7-0.7-1.1-1c-0.2,0.2-0.4,0.5-0.7,0.7c-0.7,0.6-1.4,0.9-2.4,0.8c-0.3,0-0.6-0.1-0.9,0c-1.5,0.3-2.4-0.5-3.2-1.6
		c0,0-0.1-0.1-0.2-0.1c-0.2,0.7-0.7,1-1.2,1.4c-0.3,0.2-0.7,0.3-1.1,0.3c-2.3,0-4.6,0-6.9,0c-0.5,0-0.8-0.1-1.1-0.5
		c-0.4-0.5-0.8-1-1.3-1.5c0,0-0.1,0.1-0.2,0.2c-0.5,1.2-1.3,1.7-2.7,1.7c-0.7,0-1.4,0-2.1,0c-0.4,0-0.6-0.1-0.8-0.4
		c-0.5-0.6-0.9-1.1-1.4-1.7c-0.1,0.1-0.2,0.3-0.3,0.5c-0.1,0.5-0.5,0.8-0.8,1.1c-0.4,0.3-0.9,0.5-1.5,0.5c-2.2,0-4.4,0-6.7,0
		c-0.5,0-0.8-0.1-1.1-0.5c-0.4-0.6-0.9-1.2-1.3-1.9c-0.1,0.3-0.2,0.6-0.4,0.9c-0.2,0.3-0.3,0.6-0.5,0.8c-0.5,0.5-1.1,0.8-1.8,0.7
		c-0.7-0.1-1.4,0-2,0c-0.4,0-0.7-0.1-1-0.5c-0.4-0.5-0.9-1.1-1.1-1.7c0-0.1-0.1-0.3-0.3-0.5c-0.2,0.5-0.3,0.9-0.5,1.2
		c-0.2,0.3-0.4,0.6-0.6,0.9c-0.4,0.5-1,0.6-1.7,0.6c-8.2,0-16.5,0-24.7,0c-0.8,0-1.4,0.2-2.1,0.5c-1.2,0.7-2.4,1.3-3.6,1.9
		c-0.5,0.3-1,0.4-1.6,0.4c-10.7,0-21.4,0-32,0c-6,0-12,0-18,0c-0.3,0-0.6,0-1,0c-0.8-1.1-1.5-2.3-2.3-3.4c-0.6,1-1.3,1.8-1.8,2.7
		c-0.3,0.5-0.7,0.7-1.3,0.7c-1-0.1-2.1,0-3.1,0c-0.5,0-0.8-0.1-1.1-0.6c-0.6-0.9-1.2-1.8-1.9-2.8c-0.2,0.2-0.3,0.4-0.5,0.6
		c-0.5,0.8-1.1,1.6-1.6,2.4c-0.2,0.3-0.4,0.5-0.8,0.5c-1.4,0-2.7,0-4.1,0c-0.7-1.1-1.5-2.2-2.3-3.4c-0.8,1.2-1.5,2.3-2.3,3.4
		c-1.4,0-2.8,0-4.2,0c-0.4,0-0.5-0.2-0.7-0.4c-0.5-0.7-0.9-1.4-1.4-2.2c-0.2-0.2-0.3-0.5-0.6-0.8c-0.3,0.4-0.6,0.8-0.8,1.2
		c-0.5,0.7-1,1.5-1.5,2.2c-0.9,0-1.8,0-2.7,0c-2.5,0-5,0-7.5,0c-0.6,0-1-0.2-1.3-0.7c-0.2-0.4-0.5-0.7-0.8-1.1
		c-0.2,0.3-0.4,0.5-0.6,0.8c-0.9,1.2-0.4,1-2,1c-2.9,0-5.8,0-8.7,0c-0.3,0-0.6,0-1,0c-0.8-1.1-1.5-2.2-2.3-3.4
		c-0.7,1-1.3,1.9-1.9,2.8c-0.3,0.5-0.7,0.7-1.2,0.6c-1,0-2-0.1-3,0c-0.6,0-1-0.2-1.3-0.7c-0.5-0.9-1.1-1.7-1.8-2.7
		c-0.2,0.2-0.3,0.3-0.4,0.5c-0.5,0.8-1.1,1.6-1.6,2.5c-0.2,0.3-0.4,0.5-0.8,0.5c-1.4,0-2.7,0-4.1,0c-0.7-1.1-1.5-2.2-2.3-3.4
		c-0.8,1.2-1.5,2.3-2.3,3.4c-1.4,0-2.8,0-4.2,0c-0.4,0-0.5-0.2-0.7-0.4c-0.5-0.8-1-1.5-1.5-2.3c-0.1-0.2-0.3-0.4-0.5-0.7
		c-0.7,1-1.3,1.9-1.9,2.8c-0.3,0.5-0.6,0.6-1.2,0.6c-6.1,0-12.2,0-18.3,0c-10.6,0-21.2,0-31.9,0c-0.6,0-1.2-0.1-1.7-0.4
		c-1.2-0.7-2.5-1.3-3.8-2c-0.6-0.3-1.1-0.4-1.8-0.4c-8.3,0-16.6,0-24.9,0c-1.1,0-1.8-0.5-2.2-1.5c-0.1-0.4-0.3-0.7-0.4-1.1
		c-0.5,0.7-0.9,1.4-1.3,2c-0.3,0.4-0.7,0.6-1.2,0.6c-0.7,0-1.5,0-2.2,0c-1,0-1.5-0.6-2-1.3c-0.2-0.3-0.3-0.7-0.4-1.1
		c-0.5,0.7-1,1.4-1.4,2c-0.2,0.3-0.5,0.4-0.8,0.4c-2.4,0-4.7,0-7.1,0c-0.9,0-1.4-0.6-1.9-1.3c-0.2-0.3-0.3-0.6-0.4-0.8
		c-0.5,0.6-1,1.2-1.4,1.8c-0.2,0.3-0.5,0.4-0.9,0.4c-0.8,0-1.6,0-2.4,0c-1.1,0-1.8-0.6-2.3-1.5c-0.1-0.1-0.1-0.3-0.2-0.5
		c-0.2,0.3-0.4,0.6-0.6,0.9c-0.2,0.3-0.5,0.5-0.7,0.7c-0.3,0.4-0.7,0.5-1.2,0.5c-2.1,0-4.2-0.1-6.2,0c-1.4,0-2.4-0.5-3-1.8
		c-0.2,0.2-0.4,0.5-0.5,0.6c-1.1,1.1-1.1,1.1-2.6,1.1c-0.4,0-0.8,0-1.2,0c-1,0.1-1.6-0.4-2.3-0.9c-0.2-0.2-0.3-0.5-0.6-0.8
		c-0.9,1.4-2.2,1.8-3.8,1.7c-1.6-0.1-3.2-0.1-4.8,0c-1.3,0.1-2.3-0.5-3.1-1.4c0,0-0.1,0-0.1,0c-1.3,1.8-3.3,1.3-5.1,1.3
		c-0.7-0.4-1.4-0.8-2.2-1.2c0.1,0,0,0-0.1,0.1c-0.9,1-2,1.3-3.3,1.2c-0.9-0.1-1.7,0-2.6,0c-0.4,0-0.8,0.1-1.1,0.4
		c-1.5,1.3-2.9,2.5-4.4,3.8c-0.4,0.4-0.9,0.5-1.5,0.5c-4,0-8.1,0-12.1,0c-32.4,0-64.8,0-97.3,0c-1.6,0-2.9-0.6-4.4-1.1
		c-0.2-0.1-0.4-0.3-0.6-0.5c-0.8-1-1.6-2-2.4-3c-0.2-0.3-0.4-0.5-0.5-0.8c-0.7-1.8-1.5-3.7-2.1-5.6c-0.4-1.2-0.6-2.4-0.8-3.6
		c-0.3-1.6-0.6-3.1-0.9-4.8c0.9,0,1.7-0.1,2.5-0.1c4.9,0,9.8,0,14.7,0c0.4,0,0.9,0.1,1.2-0.3c0.1-0.1,0.3-0.1,0.5-0.1
		c0.7,0,1.4,0,2.1,0c20.2,0,40.3,0,60.5,0c0.4,0,0.8,0,1.2,0c0-2.9-0.3-5.7-0.3-8.6c0-2.8,0.2-5.6,0.4-8.6c-0.5,0-0.8,0-1.2,0
		c-20,0-40,0-60.1,0c-0.7,0-1.5,0-2.2-0.1c-0.4,0-0.9,0.1-1.2-0.3c-0.1-0.2-0.6-0.1-0.8-0.1c-4.9,0-9.7,0-14.6,0
		c-0.9,0-1.7-0.1-2.7-0.1c0.2-1.3,0.5-2.5,0.7-3.7c0.1-0.6,0.3-1.3,0.4-1.9c0.4-3.1,1.9-5.8,2.9-8.7c0.1-0.2,0.3-0.5,0.4-0.7
		c0.7-1,1.5-1.9,2.2-2.9c0.3-0.4,0.6-0.6,1-0.8c1.7-0.7,3.4-0.9,5.3-0.9c35.9,0,71.8,0,107.7,0c0.8,0,1.5,0.2,2.1,0.7
		c1.3,1.2,2.7,2.3,4,3.5c0.4,0.3,0.8,0.5,1.3,0.5c1.2,0,2.3,0,3.5,0c0.6,0,1.1,0.1,1.5,0.5c0.3,0.3,0.6,0.5,0.9,0.8
		c0.2-0.2,0.3-0.3,0.5-0.4c0.8-0.5,1.7-1,2.7-0.9c0.7,0.1,1.5-0.1,2.2,0.1c0.7,0.2,1.2,0.8,1.8,1.3c0.8-0.8,1.7-1.4,3-1.4
		c2.1,0.1,4.3,0,6.4,0c0.5,0,0.8,0.1,1.1,0.4c0.4,0.4,0.8,0.8,1.2,1.1c0.7-1,1.5-1.6,2.8-1.6c0.7,0,1.5,0,2.2,0
		c0.2,0,0.5,0.1,0.7,0.2c0.6,0.4,1.1,0.9,1.7,1.3c-0.1,0.1-0.1,0.2-0.2,0.2c0.2-0.3,0.4-0.7,0.7-0.9c0.6-0.6,1.3-0.8,2.3-0.8
		c2.1,0.1,4.2,0,6.3,0c0.5,0,0.9,0.1,1.2,0.5c0.4,0.5,0.8,1,1.3,1.5c0.2-0.7,0.6-1.3,1.3-1.7c0.3-0.2,0.6-0.3,1-0.3
		c0.9,0,1.7,0,2.6,0c0.4,0,0.6,0.1,0.9,0.4c0.5,0.6,1,1.2,1.4,1.8c0.1-0.2,0.2-0.4,0.2-0.6c0.4-1,1.3-1.6,2.3-1.6c2.2,0,4.4,0,6.6,0
		c0.5,0,0.9,0.1,1.1,0.5c0.4,0.6,0.9,1.3,1.3,1.9c0.1-0.3,0.2-0.6,0.4-0.8c0.2-0.3,0.4-0.6,0.6-0.9c0.4-0.5,1-0.7,1.7-0.7
		c0.4,0.1,0.9,0.1,1.3,0c1.4-0.2,2,0.7,2.6,1.7c0.1,0.3,0.3,0.6,0.5,1.1c0.2-0.4,0.3-0.8,0.5-1.1c0.2-0.3,0.3-0.6,0.5-0.9
		c0.5-0.6,1.1-0.9,1.9-0.8c0.3,0.1,0.7,0,1,0c1.1,0.1,2.1-0.2,3.1-0.8c2.2-1.4,4.5-1.2,6.8-0.2c0.4,0.2,0.8,0.6,1.2,1
		c4.4,0,8.9,0,13.3,0c0.3,0,0.6-0.1,0.9-0.3c1.4-0.7,2.8-1.5,4.3-2.2c0.4-0.2,0.8-0.3,1.3-0.3c16.8,0,33.6,0,50.5,0
		c0.5,0,0.9,0.2,1.1,0.6c0.6,0.9,1.2,1.8,1.9,2.8c0.8-1.2,1.5-2.3,2.3-3.4c1.5,0,3.1,0,4.6,0c0.7,1.1,1.5,2.2,2.3,3.4
		c0.7-1,1.3-1.9,1.8-2.8c0.3-0.5,0.6-0.7,1.2-0.7c1.1,0,2.1,0,3.2,0c0.5,0,0.8,0.1,1,0.6c0.5,0.8,1,1.5,1.5,2.2
		c0.1,0.2,0.3,0.4,0.5,0.6c0.6-0.9,1.2-1.7,1.7-2.6c0.4-0.6,0.8-0.9,1.6-0.9c1,0.1,2,0,3,0c0.4,0,0.7,0.1,0.9,0.5
		c0.6,1,1.2,1.9,1.9,2.9c0.9-1.1,1.5-2.3,2.3-3.4c0.2,0,0.5,0,0.7,0c3.2,0,6.3,0,9.5,0c0.5,0,0.9,0.1,1.2,0.6
		c0.2,0.4,0.5,0.8,0.9,1.2c0.4-0.5,0.7-0.9,1-1.3c0.2-0.3,0.5-0.5,0.9-0.5c3.3,0,6.6,0,9.9,0c0.4,0,0.7,0.2,0.9,0.5
		c0.6,0.9,1.2,1.9,1.9,2.9c0.5-0.7,1-1.4,1.4-2.1c0.5-1,1.3-1.5,2.5-1.3c0.9,0.1,1.9,0,2.8,0c0.1,0,0.1,0,0.2,0
		c0.7,1.1,1.4,2.2,2.3,3.4c0.8-1.2,1.6-2.3,2.3-3.4c1.4,0,2.8,0,4.1,0c0.4,0,0.6,0.2,0.8,0.5c0.6,0.9,1.2,1.9,1.9,2.9
		c0.6-0.9,1.2-1.6,1.6-2.4c0.4-0.8,1-1.1,1.9-1c0.9,0.1,1.8,0,2.7,0c0.5,0,0.9,0.2,1.1,0.6c0.6,0.9,1.2,1.8,1.9,2.8
		c0.8-1.2,1.5-2.3,2.3-3.4c0.3,0,0.6,0,1,0c16.7,0,33.3,0,50,0c0.6,0,1.1,0.1,1.6,0.4c1.3,0.7,2.7,1.4,4,2.1
		c0.4,0.2,0.8,0.3,1.3,0.3c4.2,0,8.4,0,12.5,0c0.5,0,0.8-0.1,1.1-0.5c0.3-0.3,0.7-0.6,1.1-0.7c0.7-0.2,1.4-0.5,2.1-0.6
		c1.9-0.3,3.5,0.4,5,1.5c0.3,0.2,0.6,0.3,1,0.3c0.8,0,1.7,0,2.5,0c1-0.1,1.6,0.6,2,1.3c0.2,0.4,0.3,0.8,0.6,1.4
		c0.1-0.3,0.2-0.5,0.3-0.6c0.4-0.6,0.8-1.2,1.2-1.8c0.1-0.2,0.4-0.3,0.7-0.3c0.6,0,1.2,0,1.9,0c1.6,0,2.2,0.4,2.8,1.9
		c0.1,0.2,0.1,0.3,0.3,0.6c0.1-0.2,0.2-0.4,0.3-0.5c0.2-0.3,0.3-0.6,0.5-0.8c0.9-1.1,0.9-1.1,2.3-1.1c1.9,0,3.9,0,5.8,0
		c1.3,0,2,0.5,2.5,1.7c0.1,0.2,0.2,0.4,0.2,0.5c0.5-0.6,1-1.2,1.4-1.8c0.2-0.3,0.5-0.3,0.9-0.3c0.9,0,1.7,0,2.6,0
		c0.9,0,1.5,0.6,2,1.3c0.1,0.2,0.2,0.5,0.4,0.8c0.2-0.3,0.4-0.7,0.6-0.9c1-1.2,1-1.2,2.6-1.2c1.9,0,3.8,0,5.7,0
		c1.3,0,2.2,0.5,2.8,1.8c0.2-0.2,0.3-0.4,0.4-0.6c1.1-1.2,1.1-1.2,2.7-1.2c0.4,0,0.8,0,1.2,0c1.1,0,2.1,0.5,2.7,1.6
		c0.4-0.4,0.8-0.7,1.2-1.1c0.3-0.3,0.7-0.5,1.2-0.4c2.1,0,4.2,0.1,6.3,0c1.3-0.1,2.2,0.5,3.1,1.4c0.4-0.3,0.7-0.6,1.1-0.9
		c0.4-0.4,0.8-0.5,1.3-0.5c0.5,0,1,0.1,1.5,0c1.3-0.2,2.3,0.4,3.3,1.3c0.4-0.3,0.7-0.6,1.1-0.9c0.3-0.3,0.7-0.4,1.1-0.4
		c1.2,0,2.5,0,3.7,0c0.5,0,0.9-0.2,1.3-0.5c1.4-1.2,2.8-2.3,4.1-3.5c0.5-0.5,1.1-0.7,1.8-0.7c22.9,0,45.7,0,68.6,0
		c13.5,0,26.9,0,40.4,0c1,0,1.9,0.1,2.9,0.5c0.4,0.2,0.8,0.3,1.3,0.4c0.4,0.1,0.8,0.3,1,0.7c0,0.1,0.1,0.1,0.1,0.1
		c1.9,2.1,3.1,4.5,4.1,7.1c0.9,2.5,1.4,5,1.9,7.6c0.2,1,0.4,2,0.6,3.1c-0.9,0-1.7,0.1-2.5,0.1c-4.8,0-9.7,0-14.5,0
		c-0.5,0-1-0.2-1.4,0.3c-0.1,0.1-0.3,0.1-0.5,0.1c-0.8,0-1.5,0.1-2.3,0.1c-20.1,0-40.2,0-60.2,0
		C667.3,289.3,666.9,289.3,666.4,289.3z M271.7,318c0.1,0.1,0.3,0.3,0.4,0.4c0.7,0.4,1.1,0.9,1.4,1.6c0.2,0.5,0.7,0.7,1.2,0.7
		c0.9,0,1.8,0,2.8,0c0.9,0,1.7,0,2.6,0c-0.2-0.5-0.3-0.9-0.4-1.3c-0.2-0.8-0.6-1.5-0.7-2.3c-0.8-4-1.2-8.1-1.4-12.1
		c-0.2-2.9-0.1-5.8-0.1-8.7c0-2.9,0.1-5.9,0.3-8.8c0.2-2.2,0.4-4.5,0.8-6.7c0.3-1.7,0.6-3.4,1.3-5.1c0.1-0.2,0.2-0.5,0.3-0.8
		c-2,0-4,0-5.9,0c-0.2,0-0.6,0.3-0.6,0.5c-0.2,0.7-0.7,1-1.2,1.5c-0.2,0.2-0.5,0.5-0.7,0.7c0.1-0.2,0.2-0.6-0.1-0.7
		c-0.4-0.1-0.5-0.5-0.7-0.8c-0.3-0.5-0.6-0.9-1.1-1.2c-0.1,0.1-0.3,0.2-0.3,0.4c-0.4,1.1-0.9,2.2-1.1,3.3c-0.4,2-0.8,4.1-1,6.1
		c-0.3,2.4-0.5,4.8-0.6,7.1c-0.1,2.4-0.1,4.8-0.1,7.2c0,1.9,0.1,3.8,0.2,5.8c0.2,3.4,0.5,6.7,1.1,10c0.3,1.8,0.7,3.6,1.5,5.3
		c0.1,0.2,0.4,0.5,0.6,0.6c0.3,0.1,0.5-0.2,0.6-0.5c0.2-0.5,0.4-0.8,0.8-1.1C271.8,318.8,271.9,318.4,271.7,318z M747.8,287.6
		c-0.1-0.6-0.2-1-0.3-1.5c-0.6-2.6-0.9-5.2-1.9-7.7c-0.9-2.3-1.8-4.5-3.5-6.3c-0.1-0.1-0.2-0.3-0.4-0.5c-0.1-0.1-0.2-0.3-0.4-0.3
		c-1.2-0.4-2.3-0.9-3.6-0.9c-13.9,0-27.8,0-41.7,0c-21.6,0-43.2,0-64.8,0c-0.3,0-0.7,0-1.1,0c0.2,0.3,0.3,0.5,0.4,0.8
		c0.5,1.1,1.3,2.2,1.6,3.4c0.9,3.2,1.7,6.5,2,9.8c0.2,2.2,0.6,4.4,0.6,6.7c0,2.4,0.2,4.7,0.3,7.1c0,0.8-0.1,1.6-0.1,2.4
		c-0.1,3.2-0.1,6.3-0.6,9.5c-0.3,2.3-0.5,4.6-1.1,6.8c-0.7,2.5-1.1,5.1-2.5,7.4c-0.2,0.3-0.4,0.7-0.6,1.2c0.5,0,0.8,0,1.2,0
		c35.3,0,70.7,0,106,0c1.5,0,2.9-0.5,4.3-1c0.2-0.1,0.3-0.2,0.5-0.4c1.1-1.4,2.2-2.8,2.8-4.6c0.6-2,1.6-3.8,2-5.9
		c0.2-1.4,0.5-2.7,0.8-4.1c0.1-0.4,0.2-0.9,0.2-1.3c-0.6,0-1-0.1-1.5-0.1c-4.8,0-9.6,0-14.4,0c-0.3,0-0.6,0.1-0.8-0.1
		c-0.7-0.5-1.4-0.4-2.1-0.4c-20.5,0-40.9,0-61.4,0c-0.3,0-0.6,0.1-0.8,0c-0.4-0.1-0.9-0.2-1.1-0.5c-0.2-0.4-0.5-0.9-0.5-1.5
		c0.1-1.7,0.2-3.4,0.2-5.1c0.1-1.7,0.1-3.4,0-5.1c-0.1-1.7-0.1-3.5-0.2-5.2c0-0.2-0.1-0.5,0.1-0.6c0.6-0.6,0.9-1.3,2-1.3
		c20.7,0,41.4,0,62,0c0.3,0,0.5,0,0.8,0c0.2,0,0.5,0,0.6-0.1c0.4-0.4,0.8-0.3,1.2-0.3c4.8,0,9.6,0,14.3,0
		C746.8,287.7,747.2,287.6,747.8,287.6z M212.3,270.3c-0.5,0-0.9,0-1.2,0c-10.9,0-21.7,0-32.6,0c-24.5,0-49.1,0-73.6,0
		c-1.5,0-2.8,0.6-4.1,1c-0.2,0.1-0.3,0.2-0.5,0.4c-1.2,1.4-2.3,2.9-2.9,4.7c-0.6,2-1.6,3.9-2,6.1c-0.3,1.7-0.6,3.3-1,5
		c0.5,0,1,0.1,1.5,0.1c4.8,0,9.6,0,14.3,0c0.3,0,0.7-0.1,0.9,0.1c0.6,0.4,1.3,0.4,1.9,0.4c20.1,0,40.3,0,60.4,0c1,0,2.1-0.2,3,0.4
		c0.4,0.7,0.6,1.4,0.5,2.2c-0.1,0.8-0.1,1.7-0.1,2.5c0,0.7-0.1,1.3-0.1,2c0,1.7-0.1,3.4-0.1,5.1c0,1.9,0.2,3.7,0.3,5.6
		c0,0.2,0,0.4-0.1,0.5c-0.6,0.6-1.1,1.3-2.2,1.3c-20.1-0.1-40.3,0-60.4,0c-0.7,0-1.4,0-2,0c-0.3,0-0.6,0-0.8,0.2
		c-0.3,0.4-0.7,0.3-1.1,0.3c-4.8,0-9.6,0-14.4,0c-0.5,0-1,0.1-1.5,0.1c0.3,1.5,0.6,3,0.9,4.4c0.2,1.1,0.4,2.3,0.8,3.4
		c0.5,1.5,1.2,3,1.8,4.6c0.1,0.3,0.3,0.6,0.5,0.8c0.7,0.9,1.4,1.8,2.1,2.7c0.1,0.2,0.3,0.4,0.4,0.4c1.1,0.4,2.2,0.9,3.4,0.9
		c11.7,0,23.4,0,35.1,0c23.9,0,47.8,0,71.6,0c0.4,0,0.7,0,1.2,0c-0.2-0.4-0.3-0.6-0.4-0.8c-0.6-1.4-1.4-2.6-1.8-4.1
		c-0.8-3.1-1.5-6.1-1.8-9.3c-0.2-1.6-0.4-3.3-0.6-4.9c-0.1-1.5-0.2-3-0.2-4.4c0-3.4,0.1-6.8,0.1-10.2c0-0.8,0-1.6,0.1-2.4
		c0.1-1.4,0.3-2.7,0.5-4c0.2-1.7,0.4-3.3,0.7-5c0.3-1.7,0.8-3.5,1.3-5.2c0.1-0.4,0.3-0.8,0.5-1.2
		C211.2,272.6,211.7,271.5,212.3,270.3z M375.6,272.2c-0.3,0-0.7,0-1,0c-16.3,0-32.6,0-48.8,0c-0.2,0-0.5,0-0.7,0
		c-0.4,0-0.6,0.2-0.7,0.6c-0.2,1-0.5,2.1-0.7,3.1c-0.3,2.2-0.5,4.5-0.7,6.7c-0.2,2.3-0.4,4.7-0.4,7c-0.1,3.5-0.1,7-0.1,10.5
		c0,2.4,0.1,4.8,0.2,7.2c0.1,3.3,0.3,6.7,0.7,10c0.2,1.9,0.5,3.7,1,5.5c0.1,0.5,0.4,0.7,0.9,0.7c0.1,0,0.3,0,0.4,0
		c16.4,0,32.7,0,49.1,0c0.3,0,0.6,0,0.8,0C374.5,306.4,374.4,289.4,375.6,272.2z M466.8,323.4c0.3,0,0.6,0,1,0c16.3,0,32.5,0,48.8,0
		c0.2,0,0.4,0,0.5,0c0.7,0,0.8-0.1,1-0.8c0.3-1.3,0.6-2.7,0.8-4c0.5-3.7,0.7-7.4,0.9-11.1c0.1-1.4,0-2.7,0.1-4.1
		c0-1.9,0.2-3.8,0.2-5.8c0-2-0.1-3.9-0.2-5.9c-0.1-1.6-0.1-3.3-0.2-4.9c-0.1-3.2-0.4-6.4-0.8-9.6c-0.2-1.5-0.6-3-0.9-4.4
		c-0.1-0.5-0.4-0.7-0.8-0.6c-0.1,0-0.3,0-0.4,0c-16.4,0-32.8,0-49.2,0c-0.3,0-0.6,0-0.8,0C468,289.3,468,306.3,466.8,323.4z
		 M295.7,275c-0.8,0-1.6,0-2.3,0c-0.5,0-0.8,0.2-1,0.7c-0.1,0.3-0.2,0.7-0.5,0.9c-0.5,0.5-0.7,1.1-0.8,1.8c-0.6,3.4-1,6.9-1.2,10.4
		c-0.1,2.3-0.2,4.6-0.2,6.8c0,4,0,8.1,0.3,12.1c0.2,3.2,0.6,6.3,1.1,9.4c0.1,0.4,0.1,0.8,0.3,1.1c0.4,0.5,0.7,1.1,0.9,1.7
		c0.2,0.5,0.6,0.8,1.3,0.8c7.7,0,15.3,0,23,0c0.4,0,0.9,0,1.3-0.1c-0.1-0.3-0.1-0.4-0.1-0.6c-0.2-1-0.5-1.9-0.7-2.9
		c-0.6-3.5-0.8-7.1-1-10.7c-0.1-2.3-0.2-4.7-0.2-7c0-1.8,0.1-3.6,0.1-5.4c0.1-2,0.1-3.9,0.2-5.9c0.1-2,0.2-4,0.4-5.9
		c0.2-2.2,0.5-4.4,1.1-6.6c0.1-0.2,0.1-0.5,0.2-0.8c-0.4,0-0.7,0-0.9,0c-1.9,0-3.7,0-5.6,0c-1.7,0-3.3,0-5,0c-0.3,0-0.6,0-0.8,0.3
		c-0.6,0.8-1.4,1.2-2.3,1.5c-1.4,0.5-2.9,0.6-4.4,0.4C297.7,276.9,296.4,276.5,295.7,275z M536.5,275c-4.1,0-8.1,0-12.1,0
		c0.1,0.4,0.1,0.7,0.2,1c0.2,0.8,0.5,1.5,0.6,2.3c0.6,4.1,0.9,8.3,1.1,12.5c0.1,3.6,0,7.1,0,10.7c0,3.4-0.2,6.8-0.5,10.2
		c-0.2,2.7-0.5,5.5-1.2,8.1c-0.1,0.3-0.1,0.5-0.2,0.9c0.7,0,1.2,0,1.8,0c7.5,0,14.9,0,22.4,0c0.2,0,0.4,0,0.5,0
		c0.4,0,0.6-0.1,0.7-0.5c0.1-0.4,0.2-0.8,0.4-1c0.8-0.7,0.9-1.6,1-2.6c0.4-2.6,0.7-5.3,1-7.9c0.3-3.2,0.3-6.3,0.4-9.5
		c0.1-1.6-0.1-3.1-0.1-4.7c0-2.5-0.2-5.1-0.3-7.6c-0.2-2.8-0.6-5.5-1-8.3c-0.1-0.4-0.1-0.9-0.3-1.1c-0.5-0.5-0.7-1.2-1-1.8
		c-0.2-0.4-0.4-0.7-0.9-0.7c-0.8,0-1.6,0-2.3,0c-0.3,0.4-0.5,0.7-0.8,1c-0.7,0.7-1.6,0.9-2.5,1.1c-1.1,0.2-2.1,0.2-3.2,0
		C538.9,276.8,537.5,276.4,536.5,275z M409.5,272.3c0,0.3-0.1,0.5-0.1,0.7c0,1.1-0.1,2.2-0.1,3.3c0,2-0.1,4-0.1,6
		c0,13.4-0.2,26.7,0.2,40.1c0,0.3,0.1,0.7,0.1,1c3.3,0,6.5,0,9.8,0c0-17.1,0-34.1,0-51.1C416,272.3,412.8,272.3,409.5,272.3z
		 M423.2,272.3c0,17,0,34,0,51.1c3.3,0,6.5,0,9.8,0c0.1-0.3,0.1-0.6,0.1-0.9c0.1-3.1,0.2-6.2,0.2-9.3c0-10.8-0.1-21.7-0.1-32.5
		c0-2.4,0-4.9-0.1-7.3c0-0.4-0.1-0.7-0.2-1.1C429.7,272.3,426.4,272.3,423.2,272.3z M242.3,320.7c-0.2-0.4-0.3-0.7-0.4-1
		c-0.4-1-0.9-1.9-1.1-2.9c-0.5-2.2-1.1-4.5-1.2-6.8c-0.2-2.1-0.5-4.2-0.6-6.3c-0.1-2.6-0.1-5.3-0.1-7.9c0-1.7,0.1-3.3,0.2-5
		c0.2-3.1,0.5-6.2,1.1-9.3c0.4-2,0.8-3.9,1.7-5.8c0.1-0.2,0.2-0.5,0.3-0.9c-1.9,0-3.7,0-5.5,0c-0.2,0-0.5,0.1-0.7,0.2
		c-0.6,0.4-1.1,0.8-1.7,1.2c-0.5-0.4-1.1-0.7-1.6-1.2c-0.6-0.4-1-0.4-1.3,0.3c-0.5,1.1-1,2.1-1.3,3.3c-0.6,2.2-1,4.4-1.3,6.7
		c-0.5,3.7-0.7,7.4-0.8,11.1c0,1.7,0,3.5,0.1,5.2c0,1.4,0,2.7,0.2,4.1c0.3,2.9,0.5,5.8,1.2,8.6c0.4,1.8,0.9,3.6,1.7,5.3
		c0.5,1,1.1,1.2,2,0.5c0.4-0.3,0.8-0.7,1.2-1.1c0.5,0.4,0.9,0.7,1.3,1c0.3,0.2,0.7,0.5,1,0.5C238.6,320.7,240.4,320.7,242.3,320.7z
		 M608,319.2c0.6,0.4,1.1,0.8,1.7,1.2c0.5,0.4,1,0.4,1.2-0.2c0.5-0.9,1-1.9,1.3-2.9c0.5-2.1,1.1-4.3,1.4-6.5
		c0.5-3.7,0.8-7.4,0.8-11.1c0-2.5-0.2-4.9-0.1-7.4c0-1.9-0.3-3.7-0.4-5.6c-0.1-1.2-0.3-2.5-0.5-3.7c-0.2-1.3-0.6-2.5-0.8-3.7
		c-0.2-1.4-0.9-2.6-1.5-3.8c-0.3-0.7-1-0.8-1.6-0.3c-0.5,0.4-1,0.8-1.5,1.2c-0.5-0.3-0.9-0.7-1.3-1c-0.5-0.3-1-0.5-1.6-0.5
		c-1,0-2,0-2.9,0c-0.6,0-1.3,0-2,0c0.2,0.4,0.3,0.8,0.5,1.1c0.3,0.8,0.7,1.6,1,2.5c1,3.8,1.5,7.7,1.8,11.6c0.2,2.5,0.2,5.1,0.3,7.6
		c0,1.5-0.1,3.1-0.2,4.6c-0.1,1.6-0.1,3.1-0.3,4.7c-0.2,2.3-0.5,4.5-0.9,6.8c-0.4,2.2-0.9,4.4-1.9,6.4c-0.1,0.1-0.1,0.3-0.2,0.6
		c0.4,0,0.7,0,0.9,0c1.3,0,2.6-0.1,3.8,0c1,0.1,1.8-0.4,2.5-1C607.6,319.6,607.8,319.4,608,319.2z M589,318.9
		c0.9,0.3,1.3,0.9,1.8,1.4c0,0,0.1,0.1,0.1,0.1c0.4,0.4,0.8,0.4,1-0.2c0.4-0.9,0.9-1.9,1.1-2.9c0.4-1.6,0.8-3.3,1-4.9
		c0.4-2.9,0.7-5.8,0.8-8.7c0.1-2.4,0.1-4.8,0.1-7.2c-0.1-2.7-0.2-5.3-0.4-8c-0.2-2.4-0.4-4.7-0.9-7c-0.4-2-0.8-4-1.7-5.9
		c-0.4-0.8-1.1-0.9-1.6-0.2c-0.4,0.5-0.8,0.9-1.1,1.3c-0.9-0.1-1.1-0.6-1.5-1.1c-0.3-0.4-0.7-0.7-1.3-0.7c-1,0-2.1,0-3.1,0
		c-0.7,0-1.4,0-2.2,0c0.1,0.4,0.2,0.7,0.3,0.9c0.6,1.4,1,2.9,1.3,4.4c0.8,3.7,1,7.4,1.3,11.2c0.2,2.7,0.1,5.3,0.1,8
		c0,1.9-0.1,3.9-0.2,5.8c-0.2,3-0.4,6-1,8.9c-0.4,1.9-0.7,3.9-1.6,5.7c-0.1,0.2-0.2,0.5-0.2,0.8c0.1,0,0.2,0.1,0.3,0.1
		c1.8,0,3.5,0,5.3,0c0.4,0,0.7-0.2,1-0.5C588.2,319.8,588.6,319.3,589,318.9z M261.3,320.7c-0.1-0.4-0.2-0.7-0.3-1
		c-0.5-1.3-0.9-2.7-1.2-4.1c-0.7-3.5-1-7.1-1.3-10.6c-0.1-1-0.1-2-0.1-3c0-1.6-0.1-3.2-0.1-4.8c0-1.4,0.1-2.7,0.2-4.1
		c0.1-1.4,0.1-2.8,0.2-4.2c0.2-2.3,0.4-4.5,0.8-6.8c0.3-2.3,0.8-4.6,1.8-6.7c0.1-0.1,0.1-0.3,0.1-0.5c-1.9,0-3.7,0-5.6,0
		c-0.5,0-0.7,0.2-1,0.6c-0.4,0.5-0.8,0.9-1.1,1.2c-1-0.1-1.3-0.9-1.8-1.3c0,0-0.1-0.1-0.1-0.1c-0.4-0.4-0.8-0.4-1,0.2
		c-0.5,1.1-1,2.2-1.3,3.4c-1,4.1-1.5,8.2-1.7,12.4c-0.1,1-0.1,2-0.1,3c0,1.4-0.1,2.8-0.1,4.2c0,1.2,0.1,2.4,0.2,3.5
		c0.1,1.5,0.1,3,0.2,4.5c0.3,2.7,0.5,5.5,1.1,8.2c0.4,1.9,0.9,3.7,1.7,5.4c0.4,0.8,1,0.9,1.6,0.2c0.4-0.5,0.8-1,1.3-1.4
		c0.6,0.3,1.1,0.6,1.4,1.2c0.2,0.4,0.7,0.7,1.3,0.7c0.8,0,1.6,0,2.4,0C259.3,320.7,260.2,320.7,261.3,320.7z M572.5,320.8
		c0.2-0.2,0.4-0.3,0.4-0.4c0.4-1.1,0.9-2.1,1.1-3.3c0.5-2.4,1-4.9,1.2-7.4c0.1-1.6,0.3-3.2,0.4-4.9c0.1-1.2,0.1-2.3,0.1-3.5
		c0-1.3,0.1-2.6,0.1-3.9c0-1.4-0.1-2.9-0.1-4.3c-0.1-1.3-0.1-2.7-0.2-4c-0.2-3.6-0.6-7.2-1.4-10.8c-0.2-1-0.7-2-1.1-3
		c-0.1-0.2-0.4-0.4-0.6-0.4c-0.2,0-0.4,0.2-0.5,0.4c-0.3,0.8-1,1.2-1.4,1.8c-0.8-0.3-1.3-0.8-1.6-1.6c-0.2-0.5-0.7-0.7-1.2-0.7
		c-1,0-2,0-2.9,0c-0.8,0-1.6,0-2.5,0c0.1,0.4,0.2,0.8,0.3,1.1c0.2,0.7,0.6,1.4,0.7,2.2c0.4,2.2,0.8,4.3,1,6.5
		c0.3,3.1,0.5,6.2,0.6,9.4c0.1,1.7,0.1,3.4,0,5.2c-0.1,2.6-0.1,5.1-0.3,7.7c-0.2,2.4-0.5,4.8-0.8,7.2c-0.2,1.9-0.6,3.8-1.3,5.6
		c-0.1,0.3-0.2,0.6-0.3,0.9c2,0,3.9,0,5.9,0c0.2,0,0.6-0.2,0.7-0.4c0.3-0.9,1-1.3,1.6-1.9c0.3,0.4,0.8,0.5,1.1,1
		C571.7,319.9,572.1,320.3,572.5,320.8z M623.2,273.8c0.4,0.3,0.9,0.5,1,0.8c0.7,1.3,1.4,2.6,1.8,3.9c1.2,3.8,1.7,7.7,2.1,11.7
		c0.2,2.3,0.2,4.7,0.3,7c0,1.6-0.1,3.3-0.2,4.9c0,2-0.1,4-0.4,6c-0.2,1.7-0.4,3.4-0.7,5c-0.5,2.4-1,4.8-2.3,6.9
		c-0.4,0.6-0.6,1.3-1.4,1.6c1.5,1.2,2.8,2.4,4.2,3.5c0.5,0.4,1.4,0.2,1.8-0.5c0.2-0.4,0.4-0.7,0.6-1.1c0.5-1,1.1-2,1.3-3.1
		c0.8-3,1.5-6.1,1.8-9.2c0.2-1.8,0.4-3.6,0.5-5.4c0.1-1.7,0.2-3.4,0.2-5.1c0-1.1,0.1-2.2,0.1-3.4c0-1.8-0.2-3.7-0.3-5.5
		c0-1.8-0.1-3.6-0.4-5.4c-0.4-2.9-0.7-5.9-1.4-8.7c-0.6-2.3-1.3-4.6-2.5-6.7c-0.5-0.8-1.5-1.1-2.2-0.6
		C625.8,271.6,624.5,272.7,623.2,273.8z M219,274.1c-0.1-0.1-0.1-0.2-0.2-0.3c-1.3-1.1-2.5-2.2-3.8-3.2c-0.6-0.5-1.5-0.3-1.9,0.4
		c-0.2,0.4-0.5,0.8-0.7,1.3c-0.4,0.8-0.9,1.6-1.1,2.5c-0.7,2.9-1.5,5.8-1.9,8.8c-0.5,4.1-0.8,8.2-0.9,12.4c-0.1,1.9,0.1,3.7,0.1,5.6
		c0,2.8,0.2,5.5,0.5,8.2c0.4,3.2,0.9,6.3,1.7,9.4c0.5,2,1.3,3.7,2.3,5.5c0.4,0.7,1.5,1,2.1,0.5c1.3-1.1,2.6-2.2,4-3.3
		c-0.4-0.3-0.9-0.5-1-0.8c-0.7-1.3-1.4-2.6-1.8-3.9c-0.7-2.5-1.2-5-1.6-7.5c-0.5-3.7-0.6-7.4-0.8-11.1c0-0.9,0.1-1.9,0.1-2.8
		c0.1-2.5,0.1-4.9,0.4-7.3c0.3-2,0.5-4,0.9-6c0.5-2.3,1-4.6,2.2-6.7C218.1,275,218.3,274.3,219,274.1z M612,275
		c0.1,0.2,0.2,0.4,0.2,0.5c0.4,0.9,0.9,1.8,1.2,2.7c0.5,1.7,0.9,3.4,1.2,5.2c0.4,2.8,0.7,5.7,0.9,8.5c0.2,2.6,0.1,5.2,0.1,7.8
		c0,2.6-0.1,5.3-0.4,7.9c-0.3,2.3-0.5,4.5-1,6.7c-0.5,2-1,4-2,5.9c-0.1,0.1-0.1,0.3-0.1,0.4c1.4,0.3,2.2-0.6,3.2-1.3
		c0.5,0.4,1.1,0.8,1.7,1.2c0.5,0.3,1,0.3,1.3-0.3c0.5-1,1.1-2,1.4-3.1c0.5-2,1-4.1,1.3-6.2c0.7-4.2,0.8-8.4,1-12.6
		c0-1-0.1-1.9-0.1-2.9c0-2.5-0.1-4.9-0.4-7.3c-0.3-2.2-0.5-4.4-1-6.6c-0.5-2-0.9-4-2-5.9c-0.5-0.8-1.1-1-1.9-0.4
		c-0.4,0.3-0.8,0.7-1.3,1c-0.5-0.3-1-0.7-1.5-1C613.2,275,612.7,274.9,612,275z M230.5,320.6c-0.1-0.2-0.1-0.4-0.2-0.6
		c-0.4-0.9-0.9-1.8-1.2-2.8c-1.1-3.9-1.6-7.8-1.9-11.8c-0.2-2.5-0.3-5.1-0.2-7.6c0-3.1,0.2-6.2,0.4-9.2c0.2-2.1,0.5-4.2,0.9-6.3
		c0.4-2.4,1-4.8,2.2-7c0-0.1,0-0.2,0-0.3c-1.2-0.1-1.7,0.1-3.2,1.3c-0.5-0.4-1.1-0.7-1.6-1.1c-0.5-0.4-1.1-0.3-1.3,0.2
		c-0.5,1-1.1,2-1.4,3.1c-0.6,2.2-1.1,4.4-1.4,6.7c-0.6,4.2-0.8,8.4-0.8,12.7c0,1.6,0.1,3.3,0.2,4.9c0.1,1.2,0,2.4,0.2,3.6
		c0.3,2.6,0.5,5.1,1.1,7.6c0.5,2,0.9,4,2,5.9c0.6,1,1.1,1.1,2,0.4c0.4-0.3,0.8-0.7,1.2-1c0.5,0.4,1,0.7,1.5,1
		C229.3,320.7,229.8,320.8,230.5,320.6z M268.5,320.6c-0.1-0.3-0.2-0.5-0.2-0.8c-0.3-0.8-0.7-1.7-0.9-2.5c-0.9-4-1.3-8.1-1.6-12.2
		c-0.2-2.5-0.2-5.1-0.2-7.6c0-0.9,0.1-1.7,0.1-2.6c0.1-2,0.1-3.9,0.2-5.9c0.2-2.6,0.4-5.2,0.9-7.8c0.4-1.9,0.7-3.8,1.5-5.6
		c0.1-0.2,0.1-0.4,0.2-0.7c-0.3,0-0.5,0-0.8,0c-0.7-0.1-1.1,0.2-1.4,0.8c-0.3,0.5-0.8,0.9-1.2,1.4c-0.4-0.3-0.7-0.5-1-0.8
		c-0.4-0.4-0.8-0.9-1.2-1.5c-0.2,0.2-0.4,0.3-0.5,0.5c-0.4,1.1-0.9,2.1-1.2,3.3c-0.4,2-0.8,4-1,5.9c-0.3,2-0.5,4-0.6,6
		c-0.1,2.8-0.2,5.6-0.2,8.3c0,0.9,0.1,1.8,0.1,2.7c0.1,1.5,0.1,3,0.2,4.4c0.3,3,0.5,6,1.1,9c0.4,1.8,0.8,3.5,1.5,5.1
		c0.1,0.3,0.3,0.6,0.7,0.5c0.2-0.1,0.5-0.3,0.6-0.5c0.3-0.7,0.9-1.1,1.4-1.6c0.4,0.3,0.9,0.4,1.2,1
		C266.7,320.7,267,320.8,268.5,320.6z M574,275c0.1,0.3,0.2,0.5,0.3,0.8c0.3,0.9,0.7,1.8,0.9,2.8c0.5,2.5,0.9,5,1.2,7.6
		c0.3,3.4,0.5,6.8,0.5,10.2c0,3.5,0,7.1-0.3,10.6c-0.2,2.2-0.4,4.4-0.7,6.6c-0.3,2.2-0.7,4.4-1.7,6.5c-0.1,0.1-0.1,0.3-0.1,0.5
		c0.4,0,0.8,0,1.1,0c0.4,0,0.7-0.1,0.9-0.5c0.3-0.7,0.9-1.1,1.4-1.6c0.6,0.3,1.1,0.7,1.4,1.2c0.2,0.4,0.6,0.6,1,1
		c0.2-0.2,0.3-0.3,0.4-0.5c0.4-1,0.9-2,1.1-3c1.1-4.9,1.6-9.9,1.7-14.9c0.1-3.1,0-6.2,0-9.2c0-1.1-0.1-2.2-0.2-3.4
		c-0.3-3.8-0.7-7.6-1.6-11.3c-0.3-1.1-0.7-2.1-1.1-3.2c-0.3-0.6-0.9-0.6-1.2,0c-0.4,0.6-0.9,1.2-1.4,1.8c-0.4-0.5-1-0.4-1.2-1
		C576,275.1,575.2,274.8,574,275z M622.5,321c0.3-0.2,0.8-0.4,1-0.8c0.6-1.1,1.1-2.2,1.5-3.4c0.7-2.4,1.3-4.8,1.5-7.3
		c0.2-2.1,0.6-4.1,0.6-6.2c0-1.1,0.1-2.2,0.2-3.3c0-1,0-2,0-2.9c0-1-0.1-2.1-0.1-3.1c-0.1-1.3,0-2.7-0.2-4c-0.3-2.9-0.5-5.9-1.3-8.8
		c-0.5-1.8-0.8-3.6-1.7-5.2c-0.4-0.7-0.7-1.2-1.5-1.3c-0.5,0.1-1,0.1-1.5,0.2c-0.5,0-1,0-1.7,0c0.2,0.5,0.4,0.8,0.5,1.2
		c0.5,1,1,2.1,1.3,3.2c0.5,2.1,1.1,4.2,1.2,6.4c0.2,2.1,0.6,4.3,0.6,6.4c0,0.9,0.1,1.7,0.1,2.6c0,1.2,0.1,2.4,0.1,3.6
		c0,1.1-0.1,2.2-0.1,3.4c-0.1,1.5-0.1,3.1-0.3,4.6c-0.3,2.7-0.5,5.4-1.2,8.1c-0.5,1.9-0.9,3.8-1.9,5.5c-0.1,0.2-0.2,0.4-0.3,0.7
		C620.3,320.9,621.4,320.5,622.5,321z M223.3,275c-0.7,0-1.4,0-2,0c-0.2,0-0.5,0-0.7,0c-0.6-0.2-1.3,0-1.5,0.6
		c-0.5,0.9-1,1.8-1.3,2.7c-0.5,1.7-1,3.5-1.3,5.3c-0.5,3.3-0.9,6.6-1,10c-0.1,2.1-0.1,4.3-0.1,6.4c0,1.8,0,3.6,0.2,5.3
		c0.4,3.2,0.6,6.4,1.4,9.5c0.4,1.7,0.8,3.3,1.6,4.9c0.4,0.7,0.7,1.3,1.5,1.5c1-0.5,2.1-0.1,3.1-0.3c0-0.1,0-0.2,0-0.2
		c-0.1-0.2-0.2-0.4-0.3-0.6c-1.4-2.6-2-5.6-2.4-8.5c-0.4-2.8-0.6-5.6-0.8-8.5c-0.1-2-0.1-4.1-0.1-6.1c0-2.7,0.1-5.4,0.4-8.2
		c0.3-2.4,0.5-4.8,1.1-7.2c0.5-2,0.9-3.9,2-5.7C223.1,275.5,223.2,275.3,223.3,275z M523.3,320.5c0.2-1,0.6-2,0.7-3.1
		c0.3-2.2,0.6-4.5,0.7-6.7c0.2-3.1,0.4-6.2,0.5-9.3c0.1-2.6,0-5.3,0-7.9c0-1.3,0-2.6-0.1-3.9c-0.2-2.9-0.4-5.8-0.7-8.8
		c-0.2-2-0.6-3.9-1.1-5.7c-1.3-0.7-2.6-1.3-3.9-2c0,0.3,0.1,0.5,0.1,0.7c0.2,0.7,0.4,1.4,0.5,2.1c0.3,2.4,0.5,4.8,0.7,7.2
		c0.2,2.5,0.4,5,0.5,7.4c0.1,1.9,0.1,3.7,0.1,5.6c0,1.7,0,3.5-0.1,5.2c-0.1,2.7-0.2,5.4-0.3,8.1c-0.1,2-0.2,4-0.4,6
		c-0.2,2.1-0.4,4.3-1,6.4c0,0.1,0,0.3-0.1,0.5C520.7,321.8,521.9,321.2,523.3,320.5z M323.1,322.5c-0.2-1.3-0.5-2.6-0.6-3.8
		c-0.6-3.8-0.8-7.7-1-11.6c-0.2-3.6-0.2-7.2-0.2-10.7c0-0.9,0.1-1.9,0.1-2.8c0.1-2,0.1-4,0.2-5.9c0.2-2.8,0.3-5.6,0.6-8.4
		c0.2-1.8,0.3-3.5,0.8-5.2c0.1-0.2,0.1-0.4,0.1-0.8c-1.4,0.7-2.6,1.3-3.9,2c-0.2,1-0.6,2.1-0.7,3.2c-0.6,3.9-0.9,7.9-1.1,11.8
		c-0.1,2-0.1,4.1-0.1,6.1c0,0.6-0.1,1.3-0.1,1.9c0,0.9,0.1,1.8,0.1,2.7c0.1,1.9,0.1,3.8,0.2,5.7c0.2,2.6,0.4,5.2,0.6,7.8
		c0.2,2.1,0.5,4.2,1.2,6.1C320.5,321.2,321.8,321.8,323.1,322.5z M457.5,323.4c1,0,1.9,0,2.7,0c0.7,0,0.7,0,0.8-0.8
		c0.2-3.2,0.5-6.4,0.6-9.6c0.1-2.4,0.2-4.9,0.2-7.3c0-5.7-0.1-11.5-0.1-17.2c0-2.4-0.1-4.8-0.2-7.2c-0.1-1.9-0.1-3.8-0.2-5.7
		c-0.1-0.9-0.2-1.8-0.3-2.6c0-0.4-0.2-0.7-0.6-0.7c-0.9,0-1.9,0-2.9,0c0,0.2-0.1,0.4,0,0.5c0.1,2.1,0.3,4.2,0.4,6.3
		c0.1,1.8,0.1,3.6,0.2,5.4c0,1.7,0.1,3.5,0.1,5.2c0,8.2-0.1,16.5-0.2,24.7c0,2.2-0.2,4.3-0.3,6.5
		C457.6,321.7,457.5,322.5,457.5,323.4z M400.1,272.3c-0.1,2.2-0.2,4.3-0.3,6.5c-0.1,3.8-0.2,7.6-0.2,11.4c0,6.7,0.1,13.5,0.1,20.2
		c0,2.2,0,4.4,0.1,6.6c0,1.1,0.1,2.1,0.1,3.2c0.1,1.1,0.1,2.2,0.2,3.3c1.2,0,2.3,0,3.5,0c0-0.5-0.1-1-0.1-1.4
		c-0.1-2.1-0.1-4.1-0.2-6.2c0-2.1-0.1-4.3-0.1-6.4c0-10.2,0.1-20.5,0.2-30.7c0-2,0.1-3.9,0.2-5.9c0-0.2-0.1-0.3-0.1-0.5
		C402.4,272.3,401.3,272.3,400.1,272.3z M394.3,323.4c-0.1-2.9-0.3-5.7-0.4-8.5c-0.1-4-0.2-8.1-0.2-12.1c0-4,0.1-8,0.1-12
		c0-2.9,0-5.7,0.1-8.6c0-1.5,0.1-3,0.1-4.4c0-1,0.1-2,0.2-3c0-0.8,0-1.6,0-2.5c-1.1,0-2.2,0-3.3,0c-0.1,0.3-0.1,0.7-0.2,1
		c-0.1,2.2-0.3,4.4-0.4,6.6c-0.1,2.5-0.2,5-0.2,7.5c0,3.9-0.1,7.8-0.1,11.7c0,2.1,0,4.1,0.1,6.2c0,1.5,0.1,3,0.1,4.4
		c0.1,2.5,0.1,5,0.2,7.5c0,1.5,0.1,3.1,0.2,4.6c0,0.4,0.1,0.8,0.1,1.1c0,0.4,0.3,0.6,0.7,0.6C392.4,323.4,393.3,323.4,394.3,323.4z
		 M448.2,272.3c0,0.2,0,0.3,0,0.4c0.1,1.8,0.2,3.5,0.3,5.3c0.1,2.3,0.1,4.7,0.2,7c0,2.6,0.1,5.3,0.1,7.9c0,3.9,0,7.9-0.1,11.8
		c0,2.4-0.1,4.7-0.1,7.1c-0.1,3.1-0.2,6.3-0.2,9.4c0,0.7-0.1,1.4-0.1,2.1c1.2,0,2.3,0,3.5,0c0.1-0.8,0.2-1.5,0.2-2.2
		c0.1-2.6,0.3-5.2,0.4-7.8c0.1-4.7,0.1-9.5,0.2-14.2c0-1.5-0.1-3-0.1-4.4c-0.1-4.9-0.1-9.8-0.2-14.7c0-1.7-0.1-3.4-0.2-5.1
		c0-0.7-0.1-1.4-0.1-2c0-0.4-0.1-0.7-0.6-0.8C450.2,272.2,449.2,272.3,448.2,272.3z M438.9,272.3c0,0.4,0,0.6,0,0.9
		c0,0.9,0.1,1.8,0.2,2.7c0.1,3.6,0.2,7.3,0.2,10.9c0,8.9-0.1,17.8-0.1,26.8c0,2,0,4.1-0.1,6.1c0,0.2-0.1,0.4-0.1,0.6c0,1,0,2,0,3.1
		c1.1,0,2.2,0.1,3.4-0.1c0.1-1.3,0.2-2.4,0.2-3.6c0.1-2.1,0.1-4.2,0.2-6.3c0-2.5,0.1-5,0.1-7.6c0-7.1,0-14.1-0.1-21.2
		c0-2.1-0.1-4.1-0.1-6.2c-0.1-1.8-0.2-3.6-0.2-5.4c0-0.3,0-0.5-0.1-0.8c-0.2,0-0.3-0.1-0.4-0.1C441,272.3,440,272.3,438.9,272.3z
		 M384.9,323.4c-0.9-17.1-0.9-34.1,0-51.2c-0.8,0-1.7,0-2.5,0c-0.9,0-0.9,0-1,0.9c-0.1,1.2-0.3,2.4-0.3,3.6
		c-0.1,3.2-0.3,6.3-0.4,9.5c-0.1,4.1-0.1,8.3-0.1,12.4c0,4,0.1,8.1,0.2,12.1c0,1.8,0.1,3.7,0.2,5.5c0.1,1.6,0.2,3.1,0.2,4.7
		c0,0.6,0.1,1.2,0.2,1.8c0.1,0.6,0.3,0.7,0.9,0.7C383.2,323.5,384,323.4,384.9,323.4z M287.4,320.7c-0.1-0.3-0.2-0.6-0.2-0.8
		c-0.3-0.9-0.6-1.8-0.8-2.7c-0.7-3.5-1-7-1.3-10.6c-0.2-2.5-0.2-5.1-0.2-7.6c0-3.7,0-7.5,0.4-11.2c0.2-1.9,0.3-3.9,0.6-5.8
		c0.3-2,0.5-4,1.3-6c0.1-0.3,0.2-0.7,0.3-1.1c-0.6,0-1,0-1.4,0c-0.3,0-0.5,0.1-0.6,0.4c-0.2,0.8-0.7,1.3-1.3,1.9
		c-0.4,0.3-0.5,0.7-0.5,1.2c0,0.9,0,1.8-0.2,2.6c-0.6,3.1-0.7,6.2-0.9,9.3c-0.2,3.1-0.1,6.2-0.1,9.3c0,2.9,0.1,5.7,0.4,8.6
		c0.1,1.4,0.2,2.8,0.4,4.1c0.2,1.7,0.4,3.3,0.5,5c0,0.4,0.3,0.9,0.7,0.9c0.3,0.1,0.4,0.2,0.5,0.5c0.1,0.3,0.3,0.6,0.5,1
		c0.3,0.5,0.6,0.8,1.3,0.8C286.8,320.7,287,320.7,287.4,320.7z M555.1,275c0.1,0.3,0.1,0.5,0.2,0.6c0.3,1.1,0.7,2.1,0.9,3.2
		c0.4,2.5,0.8,5.1,1,7.6c0.3,3.5,0.3,7,0.5,10.5c0.1,1.4-0.1,2.9-0.1,4.3c-0.1,1.7-0.1,3.3-0.2,5c-0.2,2.7-0.3,5.3-0.8,7.9
		c-0.3,1.7-0.5,3.4-1.1,5c-0.2,0.4-0.3,0.9-0.4,1.3c0.7,0,1.2,0,1.9,0c0.1-1,0.9-1.7,1.6-2.4c0.3-0.3,0.3-0.6,0.3-1
		c0-0.9,0-1.8,0.2-2.7c0.5-2.8,0.7-5.6,0.8-8.5c0.2-2.6,0.3-5.1,0.2-7.7c0-3.5-0.2-6.9-0.4-10.4c-0.1-1.6-0.2-3.1-0.4-4.7
		c-0.3-1.7-0.5-3.4-0.5-5.1c0-0.4-0.2-0.9-0.5-0.9c-0.7-0.2-0.8-0.7-1-1.2c-0.2-0.5-0.5-0.9-1-1.1C556,274.9,555.6,275,555.1,275z
		 M249.5,275c-1-0.3-1.7,0.1-2.4,0.7c-0.8,0.8-1.2,1.8-1.5,2.9c-0.3,1.3-0.6,2.5-0.8,3.8c-0.4,3-0.7,6-1,9c-0.2,2.2-0.2,4.4-0.2,6.6
		c0,0.9,0.1,1.9,0.1,2.8c0.1,1.4,0.1,2.9,0.2,4.3c0.2,3.3,0.5,6.6,1.3,9.8c0.3,1.2,0.4,2.5,1,3.7c0.2,0.3,0.2,0.7,0.7,0.7
		c0.1,0,0.2,0.2,0.2,0.3c0.5,0.9,1.3,1.2,2.4,1c-0.1-0.3-0.2-0.6-0.3-0.9c-1.2-2.4-1.6-5-1.9-7.5c-0.5-3.3-0.8-6.6-0.9-9.9
		c-0.1-3.3-0.1-6.5,0.1-9.8c0.1-2.5,0.3-4.9,0.6-7.3c0.4-3.3,0.9-6.5,2.3-9.5C249.4,275.5,249.4,275.3,249.5,275z M593,320.6
		c1,0.3,1.7-0.1,2.4-0.7c0.7-0.7,1.1-1.7,1.4-2.6c1-3.8,1.5-7.7,1.7-11.6c0.2-2.6,0.2-5.3,0.3-7.9c0-1.6-0.1-3.1-0.2-4.7
		c-0.1-1.3-0.1-2.6-0.2-3.9c-0.3-3.5-0.7-7-1.6-10.4c-0.3-1-0.3-2.1-1.4-2.6c0,0,0-0.1-0.1-0.2c-0.5-0.9-1.3-1.2-2.4-1
		c0.2,0.6,0.4,1.1,0.6,1.6c0.2,0.6,0.5,1.1,0.7,1.7c0.5,2.6,1.1,5.1,1.3,7.7c0.5,4.3,0.6,8.6,0.6,12.9c0,0.6-0.1,1.1-0.1,1.7
		c0,2.4-0.1,4.8-0.4,7.2c-0.2,2-0.5,3.9-0.8,5.9c-0.4,2.2-0.8,4.3-1.8,6.3C593.1,320.2,593.1,320.4,593,320.6z M602.5,297.5
		c0-0.9-0.1-2.2-0.1-3.5c-0.1-1.4-0.1-2.9-0.2-4.3c-0.3-3.7-0.7-7.3-1.7-10.9c-0.3-1.2-0.9-2.3-1.3-3.4c-0.2-0.4-0.7-0.6-1.1-0.4
		c-0.4,0.2-0.7,0.6-0.9,0.9c-0.3,0.3,0,0.6,0.2,0.9c1.5,3.5,2.5,7.1,3,10.9c0.4,3.5,0.5,7,0.6,10.5c0,1.4-0.1,2.9-0.2,4.3
		c-0.2,2.2-0.3,4.5-0.6,6.7c-0.4,3.1-1.3,6.1-2.5,8.9c-0.7,1.5-0.6,1.1,0.5,2.2c0.4,0.4,0.8,0.3,1.1-0.2c0.5-1,0.9-2,1.2-3
		c1.1-4,1.5-8.1,1.9-12.3C602.4,302.6,602.4,300.3,602.5,297.5z M240,297.9c0.1,2.5,0,5,0.3,7.5c0.3,3.1,0.5,6.2,1.2,9.3
		c0.4,1.9,0.9,3.7,1.8,5.5c0.3,0.7,0.9,0.8,1.4,0.3c0.8-0.6,0.8-0.8,0.4-1.7c0-0.1-0.1-0.2-0.1-0.3c-1.8-3.9-2.7-8-3-12.3
		c-0.1-1.3-0.2-2.7-0.3-4c-0.1-1.9-0.1-3.8-0.1-5.8c0-1.2,0-2.5,0.1-3.7c0.2-2.3,0.3-4.5,0.6-6.8c0.4-2.9,1.3-5.8,2.5-8.5
		c0.5-1.2,0.5-1.3-0.5-2.1c-0.5-0.4-0.9-0.4-1.1,0.1c-0.5,1-1,2-1.2,3c-1.1,3.9-1.5,8-1.8,12C240.1,292.9,240.1,295.4,240,297.9z
		 M561,320.7c0.5-1.2,1-2.4,1.2-3.6c0.5-2.9,0.9-5.8,1.2-8.8c0.3-3.1,0.3-6.1,0.4-9.2c0.1-2,0-4.1-0.1-6.1c0-1.2-0.1-2.4-0.2-3.5
		c-0.2-3.2-0.5-6.5-1.1-9.7c-0.3-1.5-0.7-2.9-1.2-4.3c-0.1-0.2-0.3-0.4-0.5-0.4c-0.1,0-0.3,0.2-0.4,0.4c-0.2,0.6-0.5,1.1-1,1.5
		c-0.1,0.1-0.1,0.4-0.1,0.6c0.1,0.3,0.2,0.5,0.3,0.7c0.6,1.2,1.3,2.4,1.5,3.8c0.3,1.9,0.6,3.7,0.8,5.6c0.4,3.7,0.5,7.4,0.5,11.2
		c0,0.6-0.1,1.2-0.1,1.8c-0.1,1.7-0.1,3.4-0.2,5.1c-0.1,1.9-0.3,3.8-0.6,5.6c-0.2,1.6-0.4,3.3-1.2,4.8c-0.4,0.8-0.8,1.5-1.2,2.3
		C560,319,560,320.1,561,320.7z M281.6,274.9c-0.2,0.2-0.3,0.3-0.4,0.4c-0.3,1-0.8,1.9-1,3c-0.4,2-0.7,4-0.9,6
		c-0.5,3.8-0.7,7.7-0.7,11.6c0,3.8,0,7.7,0.3,11.5c0.2,2.7,0.5,5.5,0.9,8.2c0.3,1.6,0.7,3.1,1.2,4.5c0.1,0.3,0.2,0.6,0.6,0.6
		c0.2,0,0.3-0.3,0.5-0.6c0.2-0.4,0.4-0.8,0.7-1.1c0.4-0.4,0.4-0.7,0.2-1.2c-0.3-0.6-0.7-1.3-1-2c-0.9-2-1.1-4.1-1.4-6.2
		c-0.5-3.7-0.6-7.4-0.6-11.2c0-2.2,0.1-4.4,0.2-6.7c0.1-2.7,0.3-5.4,0.8-8.1c0.2-1.3,0.4-2.7,1-3.9c0.4-0.8,0.8-1.7,1.2-2.4
		C282.7,276.5,282.2,275.8,281.6,274.9z M553.6,274.8c-0.3,0.5-0.4,0.7-0.6,1c-0.1,0.3-0.2,0.6-0.4,0.8c-0.5,0.4-0.3,0.8-0.2,1.3
		c0.5,1.3,1,2.7,1.3,4c0.4,1.9,0.6,3.8,0.8,5.7c0.4,3.5,0.4,7,0.5,10.5c0,0.6-0.1,1.2-0.1,1.9c0,3.3-0.2,6.6-0.6,9.8
		c-0.3,2.8-0.8,5.5-1.9,8.1c-0.1,0.2-0.2,0.4-0.1,0.6c0.3,0.8,0.6,1.7,1.4,2.3c0.5-1.2,0.9-2.3,1.1-3.5c0.8-4.1,1.1-8.2,1.4-12.3
		c0.2-2.6,0.1-5.3,0.1-7.9c0-3.1,0-6.3-0.3-9.4c-0.2-1.9-0.3-3.8-0.6-5.6c-0.3-2.1-0.6-4.2-1.4-6.1
		C554,275.5,553.8,275.2,553.6,274.8z M288.7,320.7c0.1,0,0.2,0,0.3,0.1c0.1-0.1,0.1-0.2,0.2-0.3c0.2-0.4,0.3-1,0.6-1.3
		c0.5-0.5,0.4-0.9,0.2-1.4c-1.1-2.6-1.6-5.3-1.9-8.1c-0.4-4-0.6-8-0.6-12c0-3.5,0.2-7,0.5-10.5c0.3-3.2,0.8-6.4,2.1-9.4
		c0.1-0.2,0.2-0.4,0.1-0.5c-0.4-0.8-0.6-1.7-1.4-2.3c-0.5,1.3-0.9,2.4-1.1,3.7c-0.4,2.4-0.7,4.8-0.9,7.2c-0.2,1.9-0.3,3.9-0.4,5.8
		c0,0.7,0,1.4,0,2c0,1.4-0.1,2.8-0.1,4.3c0,1.4,0.1,2.9,0.2,4.3c0.1,1.5,0.1,3,0.2,4.4c0.2,2.9,0.4,5.8,0.9,8.6
		c0.3,1.6,0.6,3.1,1.1,4.6C288.5,320.3,288.6,320.5,288.7,320.7z M376.9,322.7c0.3-0.4,0.4-0.7,0.7-0.9c0.6-0.6,0.7-1.3,0.6-2.2
		c-0.3-2.6-0.4-5.1-0.6-7.7c-0.1-2.2-0.2-4.4-0.2-6.6c0-5.4,0.1-10.8,0.1-16.3c0-2.1,0.1-4.1,0.2-6.2c0.1-2.4,0.3-4.9,0.5-7.3
		c0-0.1,0-0.3,0-0.4c-0.4-0.6-0.8-1.2-1.3-1.9C375.7,279.6,375.5,314.3,376.9,322.7z M465.7,273.1c-0.2,0.1-0.2,0.1-0.2,0.1
		c-0.2,0.3-0.3,0.6-0.6,0.8c-0.6,0.6-0.7,1.2-0.6,2c0.3,2,0.4,3.9,0.5,5.9c0.1,3,0.2,5.9,0.2,8.9c0,6.5,0.1,12.9-0.1,19.4
		c-0.1,3.2-0.2,6.4-0.6,9.6c-0.1,0.5-0.1,1,0.3,1.4c0.3,0.4,0.5,0.9,1.1,1.3c0.2-2.6,0.4-5,0.5-7.4c0.1-3,0.2-6,0.2-9.1
		c0-3.5,0-6.9,0-10.4c0-3.6-0.1-7.3-0.2-10.9c-0.1-2.4-0.1-4.9-0.3-7.3C466,276,465.8,274.6,465.7,273.1z M456.3,322.4
		c0.1-0.4,0.1-0.6,0.1-0.8c0.1-2,0.3-4.1,0.4-6.1c0.1-2.2,0.1-4.3,0.2-6.5c0-1.8,0.1-3.6,0.1-5.3c0-6.1-0.1-12.1-0.2-18.2
		c0-2.4-0.1-4.9-0.2-7.3c-0.1-1.5-0.2-3-0.3-4.4c0-0.1-0.1-0.3-0.2-0.5c-0.3,0.4-0.4,0.7-0.7,1c-0.6,0.5-0.6,1.1-0.5,1.8
		c0.2,3.3,0.4,6.6,0.5,9.9c0.1,1.4,0.1,2.8,0.1,4.3c0,7-0.1,14-0.2,21.1c0,2.9-0.3,5.8-0.4,8.7c0,0.3,0,0.6,0.1,0.8
		C455.5,321.2,455.9,321.7,456.3,322.4z M386.2,273.4c-0.1,0.2-0.2,0.2-0.2,0.3c-0.2,3-0.4,5.9-0.5,8.9c-0.1,3.3-0.2,6.6-0.2,9.9
		c0,4.1,0.1,8.2,0.1,12.3c0,3.6,0.1,7.1,0.2,10.7c0,1.8,0.1,3.7,0.2,5.5c0,0.5,0.1,1.1,0.2,1.7c0.5-0.6,0.9-1.1,1.2-1.5
		c0.1-0.2,0.1-0.4,0.1-0.7c-0.2-2.4-0.4-4.9-0.5-7.3c-0.1-2.9-0.2-5.8-0.2-8.7c0-5.1,0.1-10.2,0.1-15.3c0-4.4,0.1-8.9,0.5-13.3
		c0-0.2,0-0.5-0.1-0.7C387,274.5,386.6,274,386.2,273.4z M447.1,273.3c-0.5,0.6-0.9,1-1.2,1.5c-0.1,0.1-0.1,0.4-0.1,0.6
		c0.1,3,0.3,6,0.4,9c0.1,1.9,0.1,3.8,0.1,5.7c0,7.2,0,14.3-0.1,21.5c0,1.3-0.1,2.5-0.2,3.8c-0.1,1.4-0.1,2.9-0.2,4.3
		c0,0.9,0.5,1.8,1.3,2.4c0.1-2,0.2-3.9,0.3-5.9c0.1-4,0.2-8,0.2-12c0-5.9-0.1-11.7-0.1-17.6c0-3.1-0.1-6.3-0.2-9.4
		C447.2,275.9,447.2,274.7,447.1,273.3z M395.4,273.5c0,0.3-0.1,0.4-0.1,0.6c-0.1,2.8-0.3,5.7-0.4,8.5c-0.1,1.8-0.1,3.6-0.1,5.4
		c0,9.4,0.1,18.8,0.2,28.2c0,1.7,0.1,3.4,0.2,5.1c0,0.3,0,0.6,0.1,1c0.5-0.6,0.9-1,1.2-1.5c0.1-0.1,0.1-0.4,0.1-0.6
		c-0.1-1.9-0.2-3.7-0.3-5.6c-0.1-3.2-0.2-6.4-0.2-9.6c0-5.6,0-11.3,0.1-16.9c0-3.3,0.1-6.5,0.2-9.8c0-0.6-0.1-1.2,0.1-1.8
		C396.9,275.4,396.3,274.5,395.4,273.5z M437.7,322c0.1-0.4,0.1-0.7,0.1-0.9c0-1.2,0.1-2.3,0.1-3.5c0-1.3,0.1-2.7,0.1-4
		c0-3.6,0.1-7.1,0.1-10.7c0-4.3-0.1-8.6-0.1-12.9c-0.1-5.1-0.1-10.2-0.2-15.3c0-0.4,0-0.8-0.2-1.2c-0.4,0.4-0.7,0.8-1,1.2
		c-0.1,0.1-0.1,0.3-0.1,0.5c0.1,3.3,0.2,6.6,0.2,9.9c0,1.4,0.1,2.8,0.1,4.3c0,5.8,0,11.7-0.1,17.5c0,4-0.1,8.1-0.2,12.1
		C436.5,320.3,436.9,321,437.7,322z M404.7,322c0.1,0,0.1,0,0.2,0c0.3-0.4,0.7-0.7,0.9-1.1c0.1-0.2,0.1-0.4,0.1-0.7
		c0-0.9-0.1-1.8-0.1-2.7c-0.1-3.8-0.2-7.6-0.2-11.5c0-5.8,0-11.6,0.1-17.4c0-4.1,0.1-8.2,0.2-12.3c0-1.1-0.6-1.7-1.2-2.6
		c-0.1,0.6-0.2,0.9-0.2,1.3c-0.1,2.5-0.1,4.9-0.2,7.4c0,3.6-0.1,7.3-0.1,10.9c0,4.4,0,8.8,0.1,13.2c0,3.9,0.1,7.7,0.1,11.6
		C404.5,319.3,404.6,320.6,404.7,322z M434.3,321.3c0.1,0,0.1,0.1,0.2,0.1c0.3-0.3,0.8-0.5,0.9-1.1c0-0.4,0.1-0.9,0.1-1.3
		c0.1-3,0.2-6,0.2-9.1c0-10.2-0.1-20.3-0.1-30.5c0-1.4-0.1-2.8-0.2-4c-0.4-0.4-0.7-0.6-1-1c0,0.3,0,0.4,0,0.6c0,1.4,0.1,2.7,0.1,4.1
		c0,2.8,0.1,5.6,0.1,8.4c0,9.7,0,19.4-0.1,29.2c0,0.1,0,0.3,0,0.4C434.4,318.5,434.3,319.9,434.3,321.3z M443.7,321.2
		c0.8-0.4,1-0.9,1-1.6c0.1-1.1,0.1-2.2,0.2-3.3c0.1-2.7,0.2-5.3,0.2-8c0-4.7,0-9.4,0-14c0-2.9-0.1-5.7-0.1-8.6
		c-0.1-3.1-0.2-6.2-0.2-9.2c0-0.8-0.2-1.4-1.1-1.7c0,0.3,0,0.5,0,0.7c0.1,1.6,0.1,3.1,0.2,4.7c0,1.8,0.1,3.6,0.1,5.3
		c0,4.8,0,9.6,0,14.4c0,3.9,0,7.8-0.1,11.6c0,2.6-0.1,5.2-0.2,7.8C443.7,320,443.7,320.5,443.7,321.2z M408,274.3
		c-0.6,0.4-1,0.9-1,1.7c0,1.2-0.1,2.4-0.1,3.6c0,1.7-0.1,3.3-0.1,5c0,10.5,0,21,0.1,31.6c0,1.4,0.1,2.8,0.2,4.2
		c0.1-0.1,0.2-0.2,0.3-0.3c0.2,0.3,0.5,0.6,0.6,0.9C408,305.6,408,290,408,274.3z M398.8,321.1c-0.1-0.9-0.1-1.8-0.2-2.6
		c-0.1-2.8-0.2-5.5-0.2-8.3c0-4.7,0-9.4,0-14c0-4.2,0.1-8.4,0.1-12.6c0-2.5,0.1-5,0.2-7.5c0-0.5,0-1.1,0-1.7c-0.7,0.4-1,0.8-1,1.5
		c0,0.6-0.1,1.2-0.1,1.9c-0.1,3-0.2,6-0.2,9.1c0,4.4,0,8.7,0,13.1c0,3.5,0,6.9,0.1,10.4c0.1,2.9,0.2,5.9,0.3,8.8
		C397.7,319.9,397.9,320.6,398.8,321.1z M389.4,320.7c0-0.2,0-0.4,0-0.5c-0.1-3-0.3-6.1-0.3-9.1c-0.1-2.7-0.1-5.3-0.1-8
		c0-6.9,0.1-13.8,0.2-20.7c0-1.5,0.1-3.1,0.2-4.6c0-1,0-2.1,0-3.2c-0.5,0.4-0.8,0.7-0.9,1.3c-0.1,2.7-0.4,5.4-0.4,8.1
		c-0.1,3.8-0.2,7.6-0.2,11.4c0,2.1,0.1,4.3,0.1,6.4c0.1,3.8,0.1,7.6,0.2,11.4c0.1,2.1,0.3,4.1,0.3,6.2
		C388.5,320,388.6,320.5,389.4,320.7z M453,321.2c0.6-0.4,1-0.8,1-1.4c0.1-1.9,0.3-3.8,0.3-5.8c0.1-2,0.2-4.1,0.2-6.1
		c0-2.5,0.1-5,0.1-7.6c0-4.6-0.1-9.1-0.2-13.7c0-3.5-0.2-7-0.4-10.5c0-0.7-0.3-1.1-1-1.2c0,0.1,0,0.2,0,0.3c0.1,1.9,0.2,3.8,0.3,5.7
		c0.1,3,0.2,6,0.2,9c0,7-0.1,14-0.1,21c0,1.4,0,2.7-0.1,4.1C453.2,317,453.1,319,453,321.2z M380.1,274.7c-0.5,0.4-0.8,0.7-0.8,1.2
		c-0.2,3-0.5,6.1-0.6,9.1c-0.1,3-0.2,6-0.2,9c0,3,0.1,5.9,0.1,8.9c0,3.1,0.1,6.2,0.2,9.3c0.1,2.5,0.3,5.1,0.5,7.6
		c0.1,0.7,0.1,0.7,0.8,0.6c0-0.2-0.1-0.5-0.1-0.7c-0.1-2.8-0.3-5.6-0.3-8.4c-0.1-4-0.2-7.9-0.2-11.9c0-2,0.1-4,0.1-6
		c0.1-4,0.1-8,0.2-12c0-0.9,0.1-1.7,0.1-2.6C380,277.5,380,276.1,380.1,274.7z M462.4,321c0.5-0.4,0.8-0.8,0.8-1.3
		c0.1-2.3,0.4-4.6,0.5-6.9c0.1-3.7,0.2-7.3,0.2-11c0-3.2,0-6.5-0.1-9.7c-0.1-3.4-0.2-6.8-0.3-10.2c-0.1-2-0.3-4-0.4-5.9
		c0-0.5-0.3-0.8-0.8-0.7c0,0.1,0,0.3,0,0.4c0.1,1.9,0.2,3.9,0.3,5.8c0.1,2.1,0.1,4.2,0.2,6.3c0,2.7,0.1,5.3,0.1,8
		c0,2.3,0,4.6-0.1,6.8c0,2.1-0.1,4.3-0.1,6.4c-0.1,3.3-0.2,6.7-0.3,10C462.4,319.6,462.4,320.2,462.4,321z M420.5,322.1
		c0,0,0.1,0,0.1,0c0-0.1,0.1-0.1,0.1-0.2c0-16,0-32.1,0-48.1c0,0,0,0-0.1-0.1c0,0-0.1,0-0.1,0C420.5,289.9,420.5,306,420.5,322.1z
		 M537.5,274.3c0.3,0.8,1,1.1,1.7,1.3c1.2,0.4,2.4,0.6,3.6,0.4c0.6-0.1,1.3-0.2,1.9-0.4c0.4-0.1,0.9-0.3,0.9-0.9
		c-1.2-0.8-2.5-1.6-3.9-1.6C540.1,273.2,538.7,273.5,537.5,274.3z M296.9,274.8c0.1,0.2,0.2,0.4,0.3,0.5c0.3,0.2,0.5,0.4,0.8,0.5
		c1.9,0.6,3.8,0.5,5.6-0.2c0.4-0.2,0.8-0.5,1.3-0.8c-0.4-0.4-0.7-0.8-1-0.9c-0.9-0.3-1.8-0.6-2.8-0.6
		C299.6,273.1,298.3,273.9,296.9,274.8z M422,273.5c0,0-0.1,0-0.1,0c0,16.1,0,32.3,0,48.4c0,0,0.1,0,0.1,0
		C422,305.8,422,289.7,422,273.5z"/>
	<path class="st0" d="M747.8,287.6c-0.6,0-1.1,0.1-1.5,0.1c-4.8,0-9.6,0-14.3,0c-0.4,0-0.9-0.1-1.2,0.3c-0.1,0.1-0.4,0.1-0.6,0.1
		c-0.3,0-0.5,0-0.8,0c-20.7,0-41.4,0-62,0c-1.1,0-1.4,0.7-2,1.3c-0.1,0.1-0.1,0.4-0.1,0.6c0.1,1.7,0.1,3.5,0.2,5.2
		c0.1,1.7,0.1,3.4,0,5.1c-0.1,1.7-0.1,3.4-0.2,5.1c0,0.6,0.2,1,0.5,1.5c0.2,0.3,0.7,0.4,1.1,0.5c0.2,0.1,0.5,0,0.8,0
		c20.5,0,40.9,0,61.4,0c0.7,0,1.5-0.1,2.1,0.4c0.2,0.1,0.5,0.1,0.8,0.1c4.8,0,9.6,0,14.4,0c0.5,0,0.9,0,1.5,0.1
		c-0.1,0.5-0.2,0.9-0.2,1.3c-0.3,1.4-0.6,2.7-0.8,4.1c-0.3,2.1-1.4,3.9-2,5.9c-0.6,1.8-1.7,3.2-2.8,4.6c-0.1,0.2-0.3,0.3-0.5,0.4
		c-1.4,0.5-2.7,1-4.3,1c-35.3,0-70.7,0-106,0c-0.3,0-0.7,0-1.2,0c0.3-0.5,0.4-0.9,0.6-1.2c1.4-2.3,1.9-4.8,2.5-7.4
		c0.6-2.2,0.7-4.6,1.1-6.8c0.5-3.1,0.5-6.3,0.6-9.5c0-0.8,0.1-1.6,0.1-2.4c-0.1-2.4-0.2-4.7-0.3-7.1c0-2.3-0.4-4.5-0.6-6.7
		c-0.3-3.4-1.1-6.6-2-9.8c-0.3-1.2-1.1-2.2-1.6-3.4c-0.1-0.2-0.2-0.4-0.4-0.8c0.4,0,0.8,0,1.1,0c21.6,0,43.2,0,64.8,0
		c13.9,0,27.8,0,41.7,0c1.3,0,2.4,0.5,3.6,0.9c0.2,0.1,0.3,0.2,0.4,0.3c0.1,0.2,0.2,0.3,0.4,0.5c1.7,1.8,2.6,4,3.5,6.3
		c1,2.5,1.3,5.2,1.9,7.7C747.7,286.6,747.7,287,747.8,287.6z"/>
	<path class="st0" d="M212.3,270.3c-0.6,1.2-1.1,2.2-1.7,3.3c-0.2,0.4-0.4,0.8-0.5,1.2c-0.4,1.7-0.9,3.4-1.3,5.2
		c-0.3,1.7-0.5,3.3-0.7,5c-0.2,1.3-0.4,2.7-0.5,4c-0.1,0.8-0.1,1.6-0.1,2.4c0,3.4-0.1,6.8-0.1,10.2c0,1.5,0.1,3,0.2,4.4
		c0.1,1.6,0.4,3.3,0.6,4.9c0.3,3.2,1.1,6.2,1.8,9.3c0.4,1.5,1.2,2.8,1.8,4.1c0.1,0.2,0.2,0.5,0.4,0.8c-0.5,0-0.8,0-1.2,0
		c-23.9,0-47.8,0-71.6,0c-11.7,0-23.4,0-35.1,0c-1.2,0-2.3-0.6-3.4-0.9c-0.2-0.1-0.3-0.3-0.4-0.4c-0.7-0.9-1.4-1.8-2.1-2.7
		c-0.2-0.3-0.4-0.5-0.5-0.8c-0.6-1.5-1.2-3-1.8-4.6c-0.4-1.1-0.6-2.2-0.8-3.4c-0.3-1.4-0.6-2.9-0.9-4.4c0.5,0,1-0.1,1.5-0.1
		c4.8,0,9.6,0,14.4,0c0.4,0,0.8,0.1,1.1-0.3c0.1-0.2,0.5-0.1,0.8-0.2c0.7,0,1.4,0,2,0c20.1,0,40.3,0,60.4,0c1.1,0,1.6-0.7,2.2-1.3
		c0.1-0.1,0.1-0.3,0.1-0.5c-0.1-1.9-0.2-3.7-0.3-5.6c0-1.7,0-3.4,0.1-5.1c0-0.7,0-1.3,0.1-2c0-0.8,0.1-1.7,0.1-2.5
		c0.1-0.8-0.1-1.5-0.5-2.2c-0.9-0.6-2-0.4-3-0.4c-20.1,0-40.3,0-60.4,0c-0.7,0-1.3,0.1-1.9-0.4c-0.2-0.1-0.6-0.1-0.9-0.1
		c-4.8,0-9.6,0-14.3,0c-0.5,0-1-0.1-1.5-0.1c0.3-1.7,0.7-3.4,1-5c0.3-2.1,1.3-4,2-6.1c0.6-1.8,1.7-3.3,2.9-4.7
		c0.1-0.2,0.3-0.3,0.5-0.4c1.3-0.4,2.6-1,4.1-1c24.5,0,49.1,0,73.6,0c10.9,0,21.7,0,32.6,0C211.5,270.3,211.9,270.3,212.3,270.3z"/>
	<path class="st0" d="M375.6,272.2c-1.2,17.1-1.2,34.1,0,51.2c-0.2,0-0.5,0-0.8,0c-16.4,0-32.7,0-49.1,0c-0.1,0-0.3,0-0.4,0
		c-0.5,0-0.7-0.2-0.9-0.7c-0.5-1.8-0.8-3.6-1-5.5c-0.4-3.3-0.6-6.7-0.7-10c-0.1-2.4-0.2-4.8-0.2-7.2c0-3.5,0-7,0.1-10.5
		c0.1-2.3,0.3-4.7,0.4-7c0.2-2.2,0.4-4.5,0.7-6.7c0.1-1.1,0.5-2.1,0.7-3.1c0.1-0.4,0.3-0.5,0.7-0.6c0.2,0,0.5,0,0.7,0
		c16.3,0,32.6,0,48.8,0C375,272.2,375.3,272.2,375.6,272.2z M351,297.9c-0.1-0.5-0.2-1-0.3-1.5c-0.2-1.5-0.7-2.8-1.6-4.1
		c-0.8-1.2-1.9-2.2-3.1-3c-1-0.7-2.1-1.2-3.3-1.4c-0.4,0-0.9-0.2-1.3-0.3c-0.3-0.1-0.5-0.2-0.8-0.1c-1.3,0.2-2.6,0.3-3.8,0.8
		c-1.3,0.5-2.3,1.5-3.5,2.2c-0.1,0.1-0.2,0.2-0.2,0.3c-0.6,0.9-1.2,1.8-1.8,2.7c-0.2,0.3-0.3,0.6-0.4,0.9c-0.2,0.9-0.3,1.8-0.5,2.7
		c-0.1,0.6-0.1,1.1,0,1.7c0.2,0.8,0.3,1.6,0.5,2.3c0.1,0.3,0.1,0.5,0.3,0.7c0.6,1,1.3,2,2,3c0.1,0.2,0.3,0.3,0.4,0.4
		c0.9,0.6,1.7,1.2,2.6,1.7c0.3,0.2,0.6,0.4,1,0.4c1,0.2,1.9,0.4,2.9,0.6c0.4,0.1,0.8,0.1,1.1,0c2-0.3,3.9-0.8,5.6-2.1
		c1.1-0.8,1.8-1.9,2.6-2.9C350.6,301.5,350.6,299.6,351,297.9z"/>
	<path class="st0" d="M466.8,323.4c1.2-17.1,1.2-34.1,0-51.2c0.2,0,0.5,0,0.8,0c16.4,0,32.8,0,49.2,0c0.1,0,0.3,0,0.4,0
		c0.4,0,0.7,0.2,0.8,0.6c0.3,1.5,0.7,2.9,0.9,4.4c0.4,3.2,0.7,6.4,0.8,9.6c0,1.6,0.1,3.3,0.2,4.9c0.1,2,0.2,3.9,0.2,5.9
		c0,1.9-0.1,3.8-0.2,5.8c0,1.4,0,2.7-0.1,4.1c-0.2,3.7-0.4,7.4-0.9,11.1c-0.2,1.3-0.5,2.7-0.8,4c-0.1,0.7-0.2,0.7-1,0.8
		c-0.2,0-0.4,0-0.5,0c-16.3,0-32.5,0-48.8,0C467.5,323.4,467.2,323.4,466.8,323.4z M512.1,297.9c-0.3-1.3-0.5-2.6-0.8-3.8
		c0-0.1-0.1-0.2-0.2-0.3c-1.1-1.7-2-3.5-4-4.4c-0.3-0.2-0.6-0.5-1-0.7c-0.3-0.2-0.6-0.4-1-0.5c-2-0.4-3.9-0.9-5.9-0.2
		c-0.2,0.1-0.5,0.1-0.7,0.2c-0.5,0.2-1,0.3-1.4,0.6c-2.8,1.8-2.8,1.8-4.5,4.5c-0.3,0.5-0.5,1.1-0.7,1.7c-0.5,1.9-0.7,3.8-0.1,5.7
		c0.2,0.7,0.5,1.4,0.9,2.1c1,1.7,2.2,3,3.8,3.9c0.8,0.5,1.6,0.9,2.5,1.1c1.7,0.4,3.3,0.5,5,0.1c1.1-0.3,2-0.7,2.9-1.2
		c1.5-0.9,2.6-2.2,3.6-3.6C511.7,301.3,511.6,299.5,512.1,297.9z"/>
	<path class="st0" d="M295.7,275c0.6,1.5,1.9,1.9,3.3,2.1c1.5,0.3,2.9,0.1,4.4-0.4c0.9-0.3,1.8-0.7,2.3-1.5c0.2-0.3,0.5-0.3,0.8-0.3
		c1.7,0,3.3,0,5,0c1.9,0,3.7,0,5.6,0c0.3,0,0.6,0,0.9,0c-0.1,0.3-0.1,0.6-0.2,0.8c-0.6,2.1-0.9,4.3-1.1,6.6c-0.2,2-0.3,4-0.4,5.9
		c-0.1,2-0.1,3.9-0.2,5.9c0,1.8-0.1,3.6-0.1,5.4c0,2.3,0,4.7,0.2,7c0.2,3.6,0.4,7.1,1,10.7c0.2,1,0.4,1.9,0.7,2.9
		c0,0.2,0.1,0.3,0.1,0.6c-0.5,0-0.9,0.1-1.3,0.1c-7.7,0-15.3,0-23,0c-0.7,0-1.1-0.3-1.3-0.8c-0.3-0.6-0.5-1.2-0.9-1.7
		c-0.2-0.3-0.3-0.7-0.3-1.1c-0.5-3.1-0.9-6.3-1.1-9.4c-0.3-4-0.4-8-0.3-12.1c0-2.3,0.1-4.6,0.2-6.8c0.2-3.5,0.6-6.9,1.2-10.4
		c0.1-0.7,0.3-1.3,0.8-1.8c0.2-0.2,0.4-0.6,0.5-0.9c0.1-0.5,0.4-0.7,1-0.7C294.2,275,294.9,275,295.7,275z"/>
	<path class="st0" d="M536.5,275c0.9,1.3,2.4,1.8,3.9,2.1c1.1,0.2,2.1,0.2,3.2,0c0.9-0.2,1.8-0.4,2.5-1.1c0.3-0.3,0.5-0.6,0.8-1
		c0.7,0,1.5,0,2.3,0c0.5,0,0.7,0.4,0.9,0.7c0.3,0.6,0.5,1.3,1,1.8c0.2,0.2,0.3,0.7,0.3,1.1c0.4,2.7,0.8,5.5,1,8.3
		c0.2,2.5,0.3,5.1,0.3,7.6c0,1.6,0.1,3.1,0.1,4.7c-0.1,3.2-0.1,6.3-0.4,9.5c-0.2,2.7-0.5,5.3-1,7.9c-0.1,0.9-0.3,1.9-1,2.6
		c-0.3,0.2-0.3,0.7-0.4,1c-0.1,0.4-0.3,0.5-0.7,0.5c-0.2,0-0.4,0-0.5,0c-7.5,0-14.9,0-22.4,0c-0.6,0-1.1,0-1.8,0
		c0.1-0.4,0.1-0.6,0.2-0.9c0.8-2.7,1-5.4,1.2-8.1c0.3-3.4,0.5-6.8,0.5-10.2c0-3.6,0.1-7.1,0-10.7c-0.2-4.2-0.5-8.3-1.1-12.5
		c-0.1-0.8-0.4-1.6-0.6-2.3c-0.1-0.3-0.1-0.6-0.2-1C528.5,275,532.4,275,536.5,275z"/>
	<path class="st0" d="M409.5,272.3c3.3,0,6.6,0,9.8,0c0,17.1,0,34.1,0,51.1c-3.3,0-6.5,0-9.8,0c0-0.3-0.1-0.7-0.1-1
		c-0.3-13.4-0.1-26.7-0.2-40.1c0-2,0-4,0.1-6c0-1.1,0.1-2.2,0.1-3.3C409.3,272.8,409.4,272.6,409.5,272.3z"/>
	<path class="st0" d="M423.2,272.3c3.3,0,6.5,0,9.8,0c0.1,0.3,0.2,0.7,0.2,1.1c0,2.4,0.1,4.9,0.1,7.3c0,10.8,0.1,21.7,0.1,32.5
		c0,3.1-0.1,6.2-0.2,9.3c0,0.3-0.1,0.6-0.1,0.9c-3.3,0-6.5,0-9.8,0C423.2,306.3,423.2,289.3,423.2,272.3z"/>
	<path class="st0" d="M242.3,320.7c-1.9,0-3.7,0-5.5,0c-0.3,0-0.7-0.3-1-0.5c-0.4-0.3-0.8-0.6-1.3-1c-0.4,0.4-0.8,0.7-1.2,1.1
		c-0.9,0.7-1.5,0.6-2-0.5c-0.9-1.7-1.3-3.5-1.7-5.3c-0.7-2.8-0.9-5.7-1.2-8.6c-0.2-1.3-0.2-2.7-0.2-4.1c-0.1-1.7-0.1-3.5-0.1-5.2
		c0.1-3.7,0.3-7.4,0.8-11.1c0.3-2.3,0.8-4.5,1.3-6.7c0.3-1.1,0.8-2.2,1.3-3.3c0.3-0.7,0.8-0.7,1.3-0.3c0.5,0.4,1.1,0.8,1.6,1.2
		c0.6-0.4,1.1-0.8,1.7-1.2c0.2-0.1,0.4-0.2,0.7-0.2c1.8,0,3.6,0,5.5,0c-0.1,0.3-0.2,0.6-0.3,0.9c-1,1.8-1.3,3.8-1.7,5.8
		c-0.6,3.1-0.9,6.2-1.1,9.3c-0.1,1.7-0.2,3.3-0.2,5c0,2.6,0,5.3,0.1,7.9c0.1,2.1,0.4,4.2,0.6,6.3c0.2,2.3,0.7,4.6,1.2,6.8
		c0.2,1,0.7,1.9,1.1,2.9C242,320,242.2,320.3,242.3,320.7z M233.3,278.6c-0.1,0-0.1,0-0.2-0.1c-0.1,0.1-0.3,0.2-0.3,0.4
		c-0.4,0.9-0.9,1.7-1.2,2.7c-0.5,1.5-0.9,3-1.1,4.5c-0.5,3.4-0.8,6.8-0.8,10.2c0,2.3,0.1,4.6,0.2,6.9c0.2,2.9,0.4,5.8,1.2,8.6
		c0.4,1.7,1,3.2,1.7,4.8c0.1,0.2,0.2,0.3,0.3,0.5c0.1,0,0.1,0,0.2-0.1c-1-6.4-1.6-12.8-1.6-19.2C231.7,291.4,232.3,285,233.3,278.6z
		"/>
	<path class="st0" d="M608,319.2c-0.2,0.2-0.4,0.3-0.5,0.5c-0.7,0.7-1.5,1.1-2.5,1c-1.3-0.1-2.5,0-3.8,0c-0.3,0-0.6,0-0.9,0
		c0.1-0.3,0.1-0.4,0.2-0.6c1-2,1.5-4.2,1.9-6.4c0.4-2.2,0.7-4.5,0.9-6.8c0.2-1.6,0.2-3.1,0.3-4.7c0.1-1.5,0.2-3.1,0.2-4.6
		c0-2.5,0-5.1-0.3-7.6c-0.3-3.9-0.8-7.8-1.8-11.6c-0.2-0.9-0.6-1.7-1-2.5c-0.1-0.3-0.3-0.6-0.5-1.1c0.7,0,1.4,0,2,0c1,0,2,0,2.9,0
		c0.6,0,1.1,0.1,1.6,0.5c0.4,0.3,0.9,0.6,1.3,1c0.5-0.4,1-0.8,1.5-1.2c0.6-0.5,1.3-0.4,1.6,0.3c0.6,1.2,1.2,2.4,1.5,3.8
		c0.2,1.3,0.6,2.5,0.8,3.7c0.2,1.2,0.4,2.5,0.5,3.7c0.2,1.9,0.5,3.7,0.4,5.6c0,2.5,0.2,4.9,0.1,7.4c0,3.7-0.3,7.4-0.8,11.1
		c-0.3,2.2-0.8,4.4-1.4,6.5c-0.3,1-0.8,2-1.3,2.9c-0.3,0.6-0.7,0.6-1.2,0.2C609.1,320,608.6,319.6,608,319.2z M609.2,317
		c0,0,0.1,0,0.1,0c0.1-0.1,0.3-0.2,0.3-0.4c0.2-0.4,0.4-0.9,0.6-1.4c0.2-0.5,0.5-0.9,0.6-1.4c0.4-2,1.1-4,1.3-6.1
		c0.3-2.9,0.5-5.8,0.6-8.8c0-1.5-0.1-3-0.1-4.4c-0.1-3.6-0.4-7.2-1.2-10.7c-0.4-1.7-1-3.3-1.7-4.9c-0.1-0.2-0.2-0.3-0.4-0.5
		c0,0.4,0,0.6,0,0.8c0.1,2.2,0.8,4.2,0.8,6.4c0,1.9,0.5,3.8,0.5,5.6c0,2.8,0.3,5.7,0.1,8.5c-0.2,3-0.2,5.9-0.6,8.9
		c-0.2,1.9-0.3,3.8-0.7,5.6C609.3,315.3,609.3,316.2,609.2,317z"/>
	<path class="st0" d="M589,318.9c-0.4,0.4-0.8,0.9-1.2,1.3c-0.3,0.3-0.6,0.5-1,0.5c-1.8,0-3.5,0-5.3,0c-0.1,0-0.2,0-0.3-0.1
		c0.1-0.3,0.1-0.5,0.2-0.8c0.9-1.8,1.2-3.8,1.6-5.7c0.6-2.9,0.8-5.9,1-8.9c0.1-1.9,0.2-3.8,0.2-5.8c0-2.7,0.1-5.3-0.1-8
		c-0.2-3.7-0.5-7.5-1.3-11.2c-0.3-1.5-0.7-3-1.3-4.4c-0.1-0.3-0.2-0.6-0.3-0.9c0.8,0,1.5,0,2.2,0c1,0,2.1,0,3.1,0
		c0.6,0,1,0.2,1.3,0.7c0.3,0.5,0.6,1,1.5,1.1c0.3-0.3,0.7-0.8,1.1-1.3c0.6-0.7,1.2-0.7,1.6,0.2c0.9,1.9,1.3,3.8,1.7,5.9
		c0.5,2.3,0.7,4.7,0.9,7c0.2,2.7,0.3,5.3,0.4,8c0,2.4,0.1,4.8-0.1,7.2c-0.2,2.9-0.5,5.8-0.8,8.7c-0.2,1.7-0.6,3.3-1,4.9
		c-0.3,1-0.7,1.9-1.1,2.9c-0.2,0.5-0.6,0.6-1,0.2c0,0-0.1-0.1-0.1-0.1C590.3,319.8,589.8,319.2,589,318.9z M590,317.1
		c0.1,0,0.2,0,0.2,0.1c0.2-0.3,0.4-0.6,0.5-1c0.4-0.8,0.9-1.6,1.1-2.4c0.6-2.3,1-4.7,1.2-7.1c0.3-2.8,0.3-5.7,0.4-8.5
		c0.1-0.9-0.1-1.9-0.1-2.8c-0.1-1.5-0.1-3-0.2-4.4c-0.2-2-0.5-4.1-0.7-6.1c-0.3-2.1-1-4.2-2-6c-0.1-0.1-0.2-0.2-0.4-0.4
		c0,0.6,0,1.2,0,1.7c0.2,2.1,0.4,4.2,0.7,6.2c0.5,3.6,0.5,7.3,0.6,10.9c0,1.3-0.1,2.6-0.1,3.9c0,2.3-0.1,4.7-0.4,7
		c-0.2,1.6-0.3,3.2-0.5,4.7c-0.1,1-0.3,2-0.4,3C590,316.3,590,316.7,590,317.1z"/>
	<path class="st0" d="M261.3,320.7c-1,0-2,0-2.9,0c-0.8,0-1.6,0-2.4,0c-0.6,0-1-0.2-1.3-0.7c-0.3-0.6-0.8-0.9-1.4-1.2
		c-0.4,0.5-0.9,0.9-1.3,1.4c-0.5,0.7-1.2,0.6-1.6-0.2c-0.8-1.7-1.3-3.6-1.7-5.4c-0.6-2.7-0.8-5.4-1.1-8.2c-0.1-1.5-0.1-3-0.2-4.5
		c-0.1-1.2-0.2-2.4-0.2-3.5c0-1.4,0.1-2.8,0.1-4.2c0-1,0-2,0.1-3c0.2-4.2,0.7-8.3,1.7-12.4c0.3-1.2,0.8-2.3,1.3-3.4
		c0.2-0.6,0.6-0.6,1-0.2c0,0,0.1,0.1,0.1,0.1c0.5,0.5,0.9,1.2,1.8,1.3c0.3-0.3,0.7-0.7,1.1-1.2c0.3-0.3,0.6-0.6,1-0.6
		c1.8,0,3.7,0,5.6,0c0,0.2,0,0.3-0.1,0.5c-1,2.1-1.5,4.4-1.8,6.7c-0.3,2.2-0.6,4.5-0.8,6.8c-0.1,1.4-0.1,2.8-0.2,4.2
		c-0.1,1.4-0.2,2.7-0.2,4.1c0,1.6,0.1,3.2,0.1,4.8c0,1,0,2,0.1,3c0.3,3.6,0.6,7.1,1.3,10.6c0.3,1.4,0.7,2.8,1.2,4.1
		C261,320,261.1,320.3,261.3,320.7z M252.5,278.4c-0.2,0.1-0.4,0.1-0.4,0.2c-0.5,1.1-1.1,2.1-1.5,3.3c-0.3,0.8-0.4,1.6-0.6,2.5
		c-0.7,3.5-0.9,7.1-1,10.7c-0.1,1.9,0,3.7,0,5.6c0,1.2,0.1,2.4,0.2,3.5c0.1,1.7,0.3,3.5,0.5,5.2c0.4,2.7,1,5.3,2.4,7.6
		c0.1,0.1,0.2,0.2,0.5,0.3c-0.3-2.5-0.5-4.8-0.8-7.1c-0.5-3.5-0.6-7-0.7-10.5c-0.1-4.4,0-8.7,0.5-13c0.2-1.6,0.4-3.2,0.6-4.7
		C252.4,280.8,252.4,279.7,252.5,278.4z"/>
	<path class="st0" d="M572.5,320.8c-0.4-0.5-0.7-0.9-1-1.4c-0.3-0.5-0.8-0.6-1.1-1c-0.6,0.6-1.3,1-1.6,1.9c-0.1,0.2-0.4,0.4-0.7,0.4
		c-1.9,0-3.9,0-5.9,0c0.1-0.3,0.2-0.6,0.3-0.9c0.8-1.8,1.1-3.7,1.3-5.6c0.3-2.4,0.6-4.8,0.8-7.2c0.2-2.6,0.2-5.1,0.3-7.7
		c0-1.7,0.1-3.4,0-5.2c-0.2-3.1-0.3-6.3-0.6-9.4c-0.2-2.2-0.6-4.3-1-6.5c-0.1-0.7-0.5-1.5-0.7-2.2c-0.1-0.3-0.2-0.7-0.3-1.1
		c0.9,0,1.7,0,2.5,0c1,0,2,0,2.9,0c0.6,0,1,0.2,1.2,0.7c0.3,0.8,0.8,1.3,1.6,1.6c0.4-0.6,1.1-1.1,1.4-1.8c0.1-0.2,0.3-0.4,0.5-0.4
		c0.2,0,0.5,0.2,0.6,0.4c0.4,1,0.8,2,1.1,3c0.8,3.6,1.2,7.2,1.4,10.8c0.1,1.3,0.1,2.7,0.2,4c0.1,1.4,0.1,2.9,0.1,4.3
		c0,1.3-0.1,2.6-0.1,3.9c0,1.2,0,2.3-0.1,3.5c-0.1,1.6-0.3,3.2-0.4,4.9c-0.2,2.5-0.6,4.9-1.2,7.4c-0.3,1.1-0.7,2.2-1.1,3.3
		C572.8,320.5,572.7,320.6,572.5,320.8z M570.8,317.8c0.1,0,0.1,0,0.2,0.1c0.2-0.3,0.3-0.6,0.5-0.9c0.5-1,1.1-1.9,1.3-3
		c0.4-2,0.7-4.1,1-6.2c0.2-2,0.3-4,0.4-6c0.1-1.3,0.1-2.7,0.1-4c0-0.9-0.1-1.8-0.1-2.7c-0.1-1.4-0.1-2.9-0.2-4.3
		c-0.2-2.2-0.5-4.3-0.7-6.5c-0.2-2.2-1.1-4.2-2.2-6.1c0-0.1-0.2-0.1-0.3-0.2c0,0.7-0.1,1.4,0,2c0.2,1.6,0.3,3.3,0.5,4.9
		c0.5,3.8,0.6,7.5,0.7,11.3c0,3.8,0,7.6-0.4,11.4c-0.2,1.8-0.4,3.6-0.6,5.5c-0.1,1.4-0.2,2.9-0.4,4.3
		C570.8,317.5,570.8,317.6,570.8,317.8z"/>
	<path class="st0" d="M271.7,277.6c0.2-0.2,0.5-0.4,0.7-0.7c0.4-0.4,1-0.8,1.2-1.5c0.1-0.2,0.4-0.5,0.6-0.5c1.9,0,3.9,0,5.9,0
		c-0.1,0.3-0.2,0.6-0.3,0.8c-0.7,1.6-0.9,3.3-1.3,5.1c-0.4,2.2-0.6,4.5-0.8,6.7c-0.3,2.9-0.3,5.8-0.3,8.8c0,2.9-0.1,5.8,0.1,8.7
		c0.2,4.1,0.6,8.1,1.4,12.1c0.2,0.8,0.5,1.5,0.7,2.3c0.1,0.4,0.2,0.8,0.4,1.3c-0.9,0-1.8,0-2.6,0c-0.9,0-1.8,0-2.8,0
		c-0.6,0-1.1-0.2-1.2-0.7c-0.3-0.8-0.7-1.2-1.4-1.6c-0.2-0.1-0.3-0.3-0.4-0.4l0,0c-0.1-1.3,0-2.7-0.3-4c-0.5-2.9-0.7-5.8-0.9-8.7
		c-0.2-2.4-0.2-4.8-0.2-7.2c0-1.5,0.1-3.1,0.1-4.6c0.1-1.6,0.1-3.2,0.2-4.8C270.9,285.1,271.7,281.4,271.7,277.6
		C271.8,277.6,271.7,277.6,271.7,277.6z"/>
	<path class="st0" d="M623.2,273.8c1.4-1.1,2.6-2.2,4-3.3c0.7-0.5,1.7-0.2,2.2,0.6c1.3,2.1,1.9,4.4,2.5,6.7c0.8,2.9,1,5.8,1.4,8.7
		c0.3,1.8,0.3,3.6,0.4,5.4c0,1.8,0.2,3.7,0.3,5.5c0,1.1-0.1,2.2-0.1,3.4c-0.1,1.7-0.1,3.4-0.2,5.1c-0.1,1.8-0.4,3.6-0.5,5.4
		c-0.3,3.1-1.1,6.2-1.8,9.2c-0.3,1.1-0.9,2.1-1.3,3.1c-0.2,0.4-0.4,0.7-0.6,1.1c-0.4,0.6-1.2,0.9-1.8,0.5c-1.4-1.1-2.7-2.3-4.2-3.5
		c0.9-0.3,1.1-1,1.4-1.6c1.3-2.1,1.8-4.5,2.3-6.9c0.3-1.6,0.5-3.3,0.7-5c0.3-2,0.4-4,0.4-6c0-1.6,0.2-3.3,0.2-4.9c0-2.3,0-4.7-0.3-7
		c-0.4-3.9-0.8-7.9-2.1-11.7c-0.5-1.4-1.2-2.7-1.8-3.9C624,274.3,623.6,274.2,623.2,273.8z"/>
	<path class="st0" d="M219,274.1c-0.7,0.3-0.9,0.9-1.3,1.5c-1.2,2.1-1.8,4.4-2.2,6.7c-0.4,2-0.6,4-0.9,6c-0.4,2.4-0.4,4.9-0.4,7.3
		c0,0.9-0.1,1.9-0.1,2.8c0.2,3.7,0.3,7.4,0.8,11.1c0.3,2.6,0.9,5.1,1.6,7.5c0.4,1.4,1.1,2.7,1.8,3.9c0.2,0.3,0.6,0.5,1,0.8
		c-1.4,1.1-2.7,2.2-4,3.3c-0.7,0.5-1.7,0.2-2.1-0.5c-1-1.7-1.8-3.5-2.3-5.5c-0.8-3.1-1.2-6.3-1.7-9.4c-0.4-2.7-0.5-5.5-0.5-8.2
		c0-1.9-0.1-3.7-0.1-5.6c0.1-4.1,0.4-8.3,0.9-12.4c0.4-3,1.1-5.9,1.9-8.8c0.2-0.9,0.7-1.7,1.1-2.5c0.2-0.4,0.4-0.8,0.7-1.3
		c0.4-0.7,1.3-0.9,1.9-0.4c1.3,1,2.5,2.1,3.8,3.2C218.9,273.9,219,273.9,219,274.1z"/>
	<path class="st0" d="M612,275c0.7-0.2,1.2,0,1.7,0.3c0.5,0.3,1,0.7,1.5,1c0.4-0.4,0.9-0.7,1.3-1c0.8-0.6,1.4-0.5,1.9,0.4
		c1.1,1.8,1.5,3.8,2,5.9c0.5,2.2,0.7,4.4,1,6.6c0.3,2.4,0.4,4.9,0.4,7.3c0,1,0.1,2,0.1,2.9c-0.1,4.2-0.3,8.5-1,12.6
		c-0.4,2.1-0.8,4.1-1.3,6.2c-0.3,1.1-0.9,2.1-1.4,3.1c-0.3,0.5-0.8,0.6-1.3,0.3c-0.6-0.4-1.2-0.8-1.7-1.2c-1,0.7-1.8,1.6-3.2,1.3
		c0-0.1,0-0.3,0.1-0.4c1-1.8,1.5-3.8,2-5.9c0.5-2.2,0.7-4.5,1-6.7c0.3-2.6,0.4-5.2,0.4-7.9c0-2.6,0.1-5.2-0.1-7.8
		c-0.2-2.9-0.5-5.7-0.9-8.5c-0.2-1.8-0.7-3.5-1.2-5.2c-0.3-0.9-0.8-1.8-1.2-2.7C612.1,275.4,612.1,275.3,612,275z M616.5,316.9
		c0.1,0,0.2,0.1,0.3,0.1c0.2-0.5,0.4-1.1,0.7-1.6c0.9-1.8,1.4-3.7,1.7-5.6c0.5-2.7,0.8-5.4,0.8-8.2c0-0.2,0-0.5,0-0.7
		c0-1.2,0.1-2.3,0.1-3.5c0-1.1-0.1-2.1-0.1-3.2c-0.1-3.4-0.3-6.7-1.2-10c-0.5-1.7-1-3.4-1.7-5c-0.1-0.2-0.2-0.3-0.4-0.5
		c-0.1,0-0.1,0-0.2,0C618.7,291.5,618.7,304.2,616.5,316.9z"/>
	<path class="st0" d="M230.5,320.6c-0.6,0.2-1.1,0.1-1.6-0.3c-0.5-0.3-1-0.7-1.5-1c-0.4,0.3-0.8,0.6-1.2,1c-0.9,0.7-1.4,0.5-2-0.4
		c-1.1-1.8-1.5-3.9-2-5.9c-0.6-2.5-0.8-5.1-1.1-7.6c-0.2-1.2-0.1-2.4-0.2-3.6c-0.1-1.6-0.2-3.3-0.2-4.9c0-4.2,0.3-8.5,0.8-12.7
		c0.3-2.3,0.8-4.5,1.4-6.7c0.3-1.1,0.9-2.1,1.4-3.1c0.3-0.6,0.8-0.6,1.3-0.2c0.6,0.4,1.1,0.8,1.6,1.1c1.4-1.2,1.9-1.4,3.2-1.3
		c0,0.1,0,0.2,0,0.3c-1.2,2.2-1.8,4.6-2.2,7c-0.4,2.1-0.7,4.2-0.9,6.3c-0.2,3.1-0.4,6.1-0.4,9.2c0,2.5,0,5.1,0.2,7.6
		c0.3,4,0.8,7.9,1.9,11.8c0.3,1,0.8,1.8,1.2,2.8C230.3,320.3,230.4,320.4,230.5,320.6z M226,278.7c-0.1,0-0.1,0-0.2-0.1
		c-0.1,0.2-0.3,0.5-0.4,0.7c-0.1,0.3-0.2,0.6-0.4,0.9c-0.9,1.8-1.4,3.8-1.8,5.7c-0.5,2.2-0.6,4.6-0.8,6.9c-0.1,2.1-0.1,4.1-0.1,6.2
		c0,1.5,0.1,3.1,0.2,4.6c0.2,2.6,0.4,5.1,1.1,7.6c0.5,1.7,1,3.5,1.8,5.1c0.1,0.2,0.2,0.5,0.6,0.6C223.8,304.2,223.8,291.5,226,278.7
		z"/>
	<path class="st0" d="M268.5,320.6c-1.4,0.2-1.7,0.1-2.3-1.1c-0.3-0.5-0.7-0.6-1.2-1c-0.5,0.5-1.1,0.9-1.4,1.6
		c-0.1,0.2-0.4,0.4-0.6,0.5c-0.4,0.1-0.6-0.2-0.7-0.5c-0.7-1.6-1.1-3.3-1.5-5.1c-0.6-3-0.8-6-1.1-9c-0.1-1.5-0.1-3-0.2-4.4
		c0-0.9-0.1-1.8-0.1-2.7c0-2.8,0.1-5.6,0.2-8.3c0.1-2,0.3-4,0.6-6c0.3-2,0.6-4,1-5.9c0.2-1.1,0.8-2.2,1.2-3.3
		c0.1-0.2,0.3-0.3,0.5-0.5c0.4,0.5,0.8,1,1.2,1.5c0.3,0.3,0.6,0.5,1,0.8c0.4-0.5,1-0.9,1.2-1.4c0.3-0.6,0.7-0.9,1.4-0.8
		c0.2,0,0.5,0,0.8,0c-0.1,0.3-0.1,0.5-0.2,0.7c-0.8,1.8-1.1,3.7-1.5,5.6c-0.5,2.6-0.7,5.2-0.9,7.8c-0.1,1.9-0.2,3.9-0.2,5.9
		c0,0.9-0.1,1.7-0.1,2.6c0,2.5,0,5.1,0.2,7.6c0.3,4.1,0.7,8.2,1.6,12.2c0.2,0.9,0.6,1.7,0.9,2.5
		C268.3,320.1,268.4,320.4,268.5,320.6z M264.3,278.3c-0.1,0-0.1,0-0.2,0c-0.2,0.3-0.3,0.6-0.5,0.9c-0.4,0.9-1,1.8-1.3,2.8
		c-1,4-1.3,8-1.4,12c-0.1,2,0,4,0,6c0,3.3,0.3,6.5,0.7,9.7c0.3,2.4,0.6,4.9,2.1,7c0.2,0.2,0.1,0.6,0.5,0.7c0-0.1,0.1-0.2,0.1-0.2
		c0-1.1-0.1-2.2-0.2-3.3c-0.3-2.7-0.7-5.3-0.9-8c-0.2-2.5-0.3-5.1-0.2-7.6c0-3.2,0.2-6.4,0.4-9.6c0.1-1.8,0.3-3.5,0.5-5.3
		c0.1-1.3,0.3-2.6,0.4-3.9C264.4,279.1,264.3,278.7,264.3,278.3z"/>
	<path class="st0" d="M574,275c1.2-0.3,2,0.1,2.4,1.1c0.2,0.6,0.8,0.6,1.2,1c0.5-0.6,1-1.2,1.4-1.8c0.4-0.5,1-0.6,1.2,0
		c0.4,1,0.9,2.1,1.1,3.2c0.9,3.7,1.3,7.5,1.6,11.3c0.1,1.1,0.2,2.2,0.2,3.4c0,3.1,0.1,6.2,0,9.2c-0.2,5-0.6,10-1.7,14.9
		c-0.2,1-0.7,2-1.1,3c-0.1,0.2-0.2,0.3-0.4,0.5c-0.4-0.4-0.8-0.6-1-1c-0.3-0.6-0.8-0.9-1.4-1.2c-0.4,0.5-1.1,0.9-1.4,1.6
		c-0.1,0.4-0.5,0.5-0.9,0.5c-0.4,0-0.7,0-1.1,0c0-0.2,0-0.4,0.1-0.5c0.9-2.1,1.3-4.3,1.7-6.5c0.3-2.2,0.5-4.4,0.7-6.6
		c0.3-3.5,0.4-7.1,0.3-10.6c0-3.4-0.2-6.8-0.5-10.2c-0.2-2.6-0.7-5.1-1.2-7.6c-0.2-0.9-0.6-1.9-0.9-2.8
		C574.2,275.6,574.1,275.3,574,275z M578.3,317.5c0.2-0.3,0.4-0.7,0.5-1c0.4-1,1-1.9,1.3-2.9c0.3-1,0.5-2.1,0.6-3.2
		c0.6-3.9,0.7-7.9,0.8-11.8c0-1.1-0.1-2.1-0.1-3.2c0-3.8-0.3-7.5-1-11.2c-0.2-1.2-0.3-2.4-0.9-3.4c-0.3-0.6-0.7-1.2-1-1.9
		c-0.1-0.2-0.2-0.4-0.4-0.8c-0.1,0.3-0.2,0.4-0.2,0.6c0.1,1.1,0.1,2.2,0.2,3.4c0.3,3,0.8,5.9,0.9,8.9c0.2,3,0.1,6,0.1,9
		c0,2.6,0,5.3-0.3,7.9c-0.3,2.6-0.6,5.2-0.8,7.7C578.1,316.1,578.1,316.8,578.3,317.5z"/>
	<path class="st0" d="M622.5,321c-1.1-0.6-2.2-0.1-3.2-0.4c0.1-0.2,0.1-0.5,0.3-0.7c1-1.7,1.4-3.6,1.9-5.5c0.7-2.7,0.9-5.4,1.2-8.1
		c0.2-1.5,0.2-3.1,0.3-4.6c0.1-1.1,0.1-2.2,0.1-3.4c0-1.2-0.1-2.4-0.1-3.6c0-0.9-0.1-1.7-0.1-2.6c0.1-2.2-0.4-4.3-0.6-6.4
		c-0.2-2.2-0.8-4.3-1.2-6.4c-0.2-1.1-0.8-2.2-1.3-3.2c-0.2-0.3-0.3-0.7-0.5-1.2c0.7,0,1.2,0,1.7,0c0.5,0,1-0.1,1.5-0.2
		c0.7,0.1,1.1,0.7,1.5,1.3c0.9,1.6,1.3,3.4,1.7,5.2c0.7,2.9,1,5.8,1.3,8.8c0.1,1.3,0.1,2.7,0.2,4c0,1,0.1,2.1,0.1,3.1c0,1,0,2,0,2.9
		c0,1.1-0.2,2.2-0.2,3.3c0,2.1-0.4,4.1-0.6,6.2c-0.2,2.5-0.8,4.9-1.5,7.3c-0.3,1.2-0.9,2.3-1.5,3.4
		C623.3,320.6,622.8,320.8,622.5,321z"/>
	<path class="st0" d="M223.3,275c-0.1,0.3-0.1,0.5-0.3,0.7c-1,1.8-1.5,3.7-2,5.7c-0.6,2.4-0.8,4.8-1.1,7.2c-0.4,2.7-0.4,5.4-0.4,8.2
		c0,2-0.1,4.1,0.1,6.1c0.2,2.8,0.4,5.7,0.8,8.5c0.4,2.9,1,5.8,2.4,8.5c0.1,0.2,0.2,0.4,0.3,0.6c0,0,0,0.1,0,0.2
		c-1,0.2-2.1-0.2-3.1,0.3c-0.7-0.2-1.1-0.8-1.5-1.5c-0.8-1.5-1.2-3.2-1.6-4.9c-0.8-3.1-1-6.3-1.4-9.5c-0.2-1.8-0.2-3.5-0.2-5.3
		c0-2.1,0-4.3,0.1-6.4c0.1-3.3,0.5-6.7,1-10c0.3-1.8,0.8-3.5,1.3-5.3c0.3-1,0.8-1.8,1.3-2.7c0.3-0.5,0.9-0.7,1.5-0.6
		c0.2,0.1,0.5,0,0.7,0C221.9,275,222.5,275,223.3,275z"/>
	<path class="st0" d="M523.3,320.5c-1.3,0.7-2.6,1.3-3.9,2c0-0.3,0-0.4,0.1-0.5c0.6-2.1,0.8-4.2,1-6.4c0.2-2,0.3-4,0.4-6
		c0.1-2.7,0.2-5.4,0.3-8.1c0-1.7,0.1-3.5,0.1-5.2c0-1.9,0-3.7-0.1-5.6c-0.1-2.5-0.3-5-0.5-7.4c-0.2-2.4-0.5-4.8-0.7-7.2
		c-0.1-0.7-0.3-1.4-0.5-2.1c0-0.2-0.1-0.4-0.1-0.7c1.3,0.7,2.6,1.3,3.9,2c0.6,1.8,0.9,3.7,1.1,5.7c0.3,2.9,0.5,5.8,0.7,8.8
		c0.1,1.3,0.1,2.6,0.1,3.9c0,2.6,0.1,5.3,0,7.9c-0.1,3.1-0.2,6.2-0.5,9.3c-0.2,2.2-0.4,4.5-0.7,6.7
		C523.8,318.5,523.5,319.5,523.3,320.5z"/>
	<path class="st0" d="M323.1,322.5c-1.3-0.7-2.6-1.3-3.9-1.9c-0.6-1.9-1-4-1.2-6.1c-0.2-2.6-0.4-5.2-0.6-7.8
		c-0.1-1.9-0.1-3.8-0.2-5.7c0-0.9-0.1-1.8-0.1-2.7c0-0.6,0.1-1.3,0.1-1.9c0-2,0-4.1,0.1-6.1c0.2-4,0.4-7.9,1.1-11.8
		c0.2-1.1,0.5-2.1,0.7-3.2c1.3-0.6,2.5-1.3,3.9-2c0,0.3,0,0.5-0.1,0.8c-0.5,1.7-0.7,3.5-0.8,5.2c-0.3,2.8-0.4,5.6-0.6,8.4
		c-0.1,2-0.1,4-0.2,5.9c0,0.9-0.1,1.9-0.1,2.8c0,3.6,0,7.2,0.2,10.7c0.2,3.9,0.4,7.7,1,11.6C322.6,319.9,322.9,321.1,323.1,322.5z"
		/>
	<path class="st0" d="M457.5,323.4c0.1-1,0.1-1.8,0.2-2.6c0.1-2.2,0.3-4.3,0.3-6.5c0.1-8.2,0.1-16.5,0.2-24.7c0-1.7,0-3.5-0.1-5.2
		c0-1.8-0.1-3.6-0.2-5.4c-0.1-2.1-0.3-4.2-0.4-6.3c0-0.1,0-0.3,0-0.5c1,0,1.9,0,2.9,0c0.4,0,0.6,0.4,0.6,0.7
		c0.1,0.9,0.2,1.8,0.3,2.6c0.1,1.9,0.2,3.8,0.2,5.7c0.1,2.4,0.2,4.8,0.2,7.2c0.1,5.7,0.1,11.5,0.1,17.2c0,2.4-0.1,4.9-0.2,7.3
		c-0.2,3.2-0.4,6.4-0.6,9.6c-0.1,0.7-0.1,0.8-0.8,0.8C459.3,323.5,458.4,323.4,457.5,323.4z"/>
	<path class="st0" d="M400.1,272.3c1.2,0,2.3,0,3.4,0c0,0.2,0.1,0.4,0.1,0.5c-0.1,2-0.2,3.9-0.2,5.9c-0.1,10.2-0.1,20.4-0.2,30.7
		c0,2.1,0,4.3,0.1,6.4c0,2.1,0.1,4.1,0.2,6.2c0,0.5,0.1,0.9,0.1,1.4c-1.2,0-2.3,0-3.5,0c-0.1-1.1-0.2-2.2-0.2-3.3
		c-0.1-1.1-0.1-2.1-0.1-3.2c0-2.2-0.1-4.4-0.1-6.6c0-6.7-0.1-13.5-0.1-20.2c0-3.8,0.1-7.6,0.2-11.4
		C399.8,276.6,400,274.5,400.1,272.3z"/>
	<path class="st0" d="M394.3,323.4c-1,0-1.9,0-2.8,0c-0.4,0-0.6-0.2-0.7-0.6c0-0.4-0.1-0.8-0.1-1.1c-0.1-1.5-0.2-3.1-0.2-4.6
		c-0.1-2.5-0.1-5-0.2-7.5c0-1.5-0.1-3-0.1-4.4c0-2.1-0.1-4.1-0.1-6.2c0-3.9,0-7.8,0.1-11.7c0-2.5,0.1-5,0.2-7.5
		c0.1-2.2,0.2-4.4,0.4-6.6c0-0.3,0.1-0.6,0.2-1c1.1,0,2.2,0,3.3,0c0,0.8,0,1.6,0,2.5c0,1-0.1,2-0.2,3c-0.1,1.5-0.1,3-0.1,4.4
		c0,2.9,0,5.7-0.1,8.6c0,4-0.1,8-0.1,12c0,4,0.1,8.1,0.2,12.1C394,317.7,394.1,320.5,394.3,323.4z"/>
	<path class="st0" d="M448.2,272.3c1,0,2,0,3,0c0.5,0,0.5,0.4,0.6,0.8c0.1,0.7,0.1,1.4,0.1,2c0.1,1.7,0.2,3.4,0.2,5.1
		c0.1,4.9,0.1,9.8,0.2,14.7c0,1.5,0.1,3,0.1,4.4c0,4.7-0.1,9.5-0.2,14.2c-0.1,2.6-0.2,5.2-0.4,7.8c0,0.7-0.1,1.4-0.2,2.2
		c-1.2,0-2.3,0-3.5,0c0-0.7,0.1-1.4,0.1-2.1c0.1-3.1,0.2-6.3,0.2-9.4c0.1-2.4,0.1-4.7,0.1-7.1c0-3.9,0.1-7.9,0.1-11.8
		c0-2.6,0-5.3-0.1-7.9c0-2.3-0.1-4.7-0.2-7c-0.1-1.8-0.2-3.5-0.3-5.3C448.2,272.6,448.2,272.5,448.2,272.3z"/>
	<path class="st0" d="M438.9,272.3c1.1,0,2.1,0,3.1,0c0.1,0,0.2,0.1,0.4,0.1c0,0.3,0.1,0.5,0.1,0.8c0.1,1.8,0.2,3.6,0.2,5.4
		c0.1,2.1,0.1,4.1,0.1,6.2c0,7.1,0.1,14.1,0.1,21.2c0,2.5,0,5-0.1,7.6c0,2.1-0.1,4.2-0.2,6.3c0,1.2-0.1,2.4-0.2,3.6
		c-1.1,0.1-2.2,0-3.4,0.1c0-1.1,0-2.1,0-3.1c0-0.2,0.1-0.4,0.1-0.6c0-2,0.1-4.1,0.1-6.1c0-8.9,0.1-17.8,0.1-26.8
		c0-3.6-0.1-7.3-0.2-10.9c0-0.9-0.1-1.8-0.2-2.7C438.9,272.9,438.9,272.6,438.9,272.3z"/>
	<path class="st0" d="M384.9,323.4c-0.9,0-1.7,0-2.5,0c-0.6,0-0.8-0.1-0.9-0.7c-0.1-0.6-0.2-1.2-0.2-1.8c-0.1-1.6-0.2-3.1-0.2-4.7
		c-0.1-1.8-0.1-3.7-0.2-5.5c-0.1-4-0.2-8.1-0.2-12.1c0-4.1,0-8.3,0.1-12.4c0.1-3.2,0.2-6.3,0.4-9.5c0.1-1.2,0.2-2.4,0.3-3.6
		c0.1-0.8,0.1-0.9,1-0.9c0.8,0,1.6,0,2.5,0C384,289.3,384,306.3,384.9,323.4z"/>
	<path class="st0" d="M287.4,320.7c-0.4,0-0.6,0-0.9,0c-0.6,0-1-0.3-1.3-0.8c-0.2-0.3-0.3-0.6-0.5-1c-0.1-0.2-0.2-0.4-0.5-0.5
		c-0.4-0.1-0.7-0.5-0.7-0.9c0-1.7-0.2-3.4-0.5-5c-0.2-1.4-0.2-2.8-0.4-4.1c-0.3-2.9-0.4-5.7-0.4-8.6c0-3.1-0.1-6.2,0.1-9.3
		c0.2-3.1,0.3-6.3,0.9-9.3c0.2-0.9,0.2-1.8,0.2-2.6c0-0.5,0.1-0.9,0.5-1.2c0.6-0.5,1.1-1.1,1.3-1.9c0.1-0.3,0.3-0.4,0.6-0.4
		c0.4,0,0.9,0,1.4,0c-0.1,0.4-0.2,0.7-0.3,1.1c-0.7,1.9-1,4-1.3,6c-0.2,1.9-0.4,3.9-0.6,5.8c-0.3,3.7-0.4,7.5-0.4,11.2
		c0,2.5,0.1,5.1,0.2,7.6c0.2,3.5,0.6,7.1,1.3,10.6c0.2,0.9,0.5,1.8,0.8,2.7C287.3,320.2,287.3,320.4,287.4,320.7z"/>
	<path class="st0" d="M555.1,275c0.5,0,0.9-0.1,1.3,0c0.5,0.1,0.8,0.6,1,1.1c0.2,0.5,0.3,1,1,1.2c0.3,0.1,0.5,0.5,0.5,0.9
		c0,1.7,0.2,3.4,0.5,5.1c0.2,1.5,0.3,3.1,0.4,4.7c0.2,3.5,0.3,6.9,0.4,10.4c0,2.6-0.1,5.2-0.2,7.7c-0.2,2.8-0.4,5.7-0.8,8.5
		c-0.2,0.9-0.2,1.8-0.2,2.7c0,0.4-0.1,0.7-0.3,1c-0.7,0.7-1.4,1.4-1.6,2.4c-0.7,0-1.2,0-1.9,0c0.1-0.5,0.2-0.9,0.4-1.3
		c0.6-1.6,0.8-3.3,1.1-5c0.5-2.6,0.6-5.3,0.8-7.9c0.1-1.7,0.1-3.3,0.2-5c0-1.4,0.1-2.9,0.1-4.3c-0.1-3.5-0.2-7-0.5-10.5
		c-0.2-2.6-0.6-5.1-1-7.6c-0.2-1.1-0.6-2.2-0.9-3.2C555.2,275.5,555.1,275.3,555.1,275z"/>
	<path class="st0" d="M249.5,275c-0.1,0.3-0.1,0.5-0.2,0.6c-1.4,3-1.9,6.3-2.3,9.5c-0.3,2.4-0.5,4.9-0.6,7.3
		c-0.1,3.3-0.1,6.5-0.1,9.8c0.1,3.3,0.4,6.6,0.9,9.9c0.4,2.6,0.8,5.2,1.9,7.5c0.1,0.3,0.2,0.6,0.3,0.9c-1.1,0.2-1.8-0.1-2.4-1
		c-0.1-0.1-0.1-0.3-0.2-0.3c-0.5,0-0.5-0.4-0.7-0.7c-0.6-1.1-0.7-2.4-1-3.7c-0.8-3.2-1-6.5-1.3-9.8c-0.1-1.4-0.1-2.9-0.2-4.3
		c0-0.9-0.1-1.9-0.1-2.8c0-2.2,0-4.4,0.2-6.6c0.2-3,0.6-6,1-9c0.2-1.3,0.5-2.6,0.8-3.8c0.3-1.1,0.7-2.1,1.5-2.9
		C247.8,275.1,248.5,274.8,249.5,275z"/>
	<path class="st0" d="M593,320.6c0.1-0.2,0.1-0.4,0.2-0.6c1-2,1.4-4.1,1.8-6.3c0.3-2,0.5-3.9,0.8-5.9c0.3-2.4,0.4-4.8,0.4-7.2
		c0-0.6,0.1-1.1,0.1-1.7c0-4.3-0.2-8.6-0.6-12.9c-0.3-2.6-0.8-5.1-1.3-7.7c-0.1-0.6-0.4-1.2-0.7-1.7c-0.2-0.5-0.4-1-0.6-1.6
		c1.1-0.2,1.9,0.1,2.4,1c0,0.1,0,0.1,0.1,0.2c1.1,0.5,1.2,1.6,1.4,2.6c0.9,3.4,1.3,6.9,1.6,10.4c0.1,1.3,0.1,2.6,0.2,3.9
		c0.1,1.6,0.2,3.1,0.2,4.7c0,2.6-0.1,5.3-0.3,7.9c-0.3,3.9-0.8,7.8-1.7,11.6c-0.2,1-0.6,1.9-1.4,2.6
		C594.7,320.6,594,320.9,593,320.6z"/>
	<path class="st0" d="M602.5,297.5c-0.1,2.7,0,5.1-0.2,7.5c-0.3,4.1-0.7,8.3-1.9,12.3c-0.3,1-0.8,2-1.2,3c-0.2,0.5-0.7,0.6-1.1,0.2
		c-1.1-1.1-1.2-0.7-0.5-2.2c1.2-2.9,2.1-5.8,2.5-8.9c0.3-2.2,0.4-4.5,0.6-6.7c0.1-1.4,0.2-2.9,0.2-4.3c-0.1-3.5-0.2-7-0.6-10.5
		c-0.4-3.8-1.4-7.4-3-10.9c-0.1-0.3-0.4-0.6-0.2-0.9c0.3-0.3,0.6-0.7,0.9-0.9c0.4-0.2,0.9,0,1.1,0.4c0.5,1.1,1,2.2,1.3,3.4
		c1,3.6,1.4,7.2,1.7,10.9c0.1,1.4,0.1,2.9,0.2,4.3C602.4,295.3,602.4,296.6,602.5,297.5z"/>
	<path class="st0" d="M240,297.9c0.1-2.5,0-5,0.2-7.4c0.3-4,0.8-8.1,1.8-12c0.3-1,0.8-2,1.2-3c0.3-0.5,0.7-0.6,1.1-0.1
		c1,0.9,1,0.9,0.5,2.1c-1.2,2.7-2,5.6-2.5,8.5c-0.3,2.2-0.5,4.5-0.6,6.8c-0.1,1.2-0.1,2.5-0.1,3.7c0,1.9,0.1,3.8,0.1,5.8
		c0,1.3,0.2,2.7,0.3,4c0.3,4.3,1.2,8.4,3,12.3c0,0.1,0.1,0.2,0.1,0.3c0.4,0.9,0.3,1.1-0.4,1.7c-0.6,0.4-1.1,0.3-1.4-0.3
		c-0.9-1.7-1.3-3.6-1.8-5.5c-0.7-3.1-0.9-6.2-1.2-9.3C240.1,302.9,240.1,300.3,240,297.9z"/>
	<path class="st0" d="M271.7,318c0.2,0.4,0.1,0.8-0.2,1c-0.4,0.3-0.7,0.7-0.8,1.1c-0.1,0.3-0.3,0.6-0.6,0.5
		c-0.2-0.1-0.5-0.3-0.6-0.6c-0.7-1.7-1.1-3.5-1.5-5.3c-0.6-3.3-0.9-6.7-1.1-10c-0.1-1.9-0.2-3.8-0.2-5.8c0-2.4,0-4.8,0.1-7.2
		c0.1-2.4,0.3-4.8,0.6-7.1c0.2-2.1,0.6-4.1,1-6.1c0.2-1.1,0.7-2.2,1.1-3.3c0-0.1,0.2-0.2,0.3-0.4c0.5,0.3,0.9,0.7,1.1,1.2
		c0.1,0.3,0.2,0.6,0.7,0.8c0.3,0.1,0.2,0.4,0.1,0.7c0,0,0,0,0,0c-0.5,0.2-0.6,0.8-0.8,1.2c-0.5,1-1.1,1.9-1.3,3
		c-0.6,2.4-0.9,4.8-1.1,7.3c-0.1,1.5-0.2,3-0.2,4.5c-0.1,1.6-0.2,3.2-0.2,4.8c0,1.4,0.1,2.8,0.2,4.3c0.1,2.8,0.4,5.6,0.8,8.4
		c0.3,2.3,1,4.5,2.2,6.5C271.4,317.7,271.6,317.9,271.7,318L271.7,318z"/>
	<path class="st0" d="M561,320.7c-1.1-0.6-1.1-1.7-1.9-2.4c0.4-0.8,0.8-1.5,1.2-2.3c0.7-1.5,1-3.2,1.2-4.8c0.2-1.9,0.5-3.8,0.6-5.6
		c0.1-1.7,0.1-3.4,0.2-5.1c0-0.6,0.1-1.2,0.1-1.8c0-3.7-0.1-7.5-0.5-11.2c-0.2-1.9-0.5-3.8-0.8-5.6c-0.2-1.4-0.9-2.6-1.5-3.8
		c-0.1-0.2-0.3-0.5-0.3-0.7c0-0.2,0-0.5,0.1-0.6c0.5-0.4,0.7-1,1-1.5c0.1-0.2,0.3-0.4,0.4-0.4c0.2,0,0.4,0.2,0.5,0.4
		c0.5,1.4,1,2.8,1.2,4.3c0.6,3.2,0.9,6.4,1.1,9.7c0.1,1.2,0.1,2.4,0.2,3.5c0.1,2,0.2,4.1,0.1,6.1c-0.1,3.1-0.1,6.1-0.4,9.2
		c-0.3,3-0.6,5.9-1.2,8.8C562,318.4,561.5,319.5,561,320.7z"/>
	<path class="st0" d="M281.6,274.9c0.6,0.8,1.1,1.6,1.6,2.5c-0.4,0.7-0.8,1.6-1.2,2.4c-0.6,1.2-0.8,2.6-1,3.9
		c-0.5,2.7-0.7,5.4-0.8,8.1c-0.1,2.2-0.2,4.4-0.2,6.7c0,3.7,0.2,7.5,0.6,11.2c0.3,2.1,0.4,4.2,1.4,6.2c0.3,0.7,0.7,1.3,1,2
		c0.2,0.4,0.2,0.8-0.2,1.2c-0.3,0.3-0.5,0.7-0.7,1.1c-0.1,0.2-0.3,0.5-0.5,0.6c-0.4,0.1-0.5-0.3-0.6-0.6c-0.5-1.5-0.9-3-1.2-4.5
		c-0.5-2.7-0.7-5.4-0.9-8.2c-0.3-3.8-0.4-7.7-0.3-11.5c0-3.9,0.2-7.7,0.7-11.6c0.3-2,0.5-4,0.9-6c0.2-1,0.6-2,1-3
		C281.3,275.2,281.5,275.1,281.6,274.9z"/>
	<path class="st0" d="M553.6,274.8c0.2,0.5,0.4,0.7,0.5,1c0.8,2,1.1,4.1,1.4,6.1c0.2,1.9,0.4,3.8,0.6,5.6c0.3,3.1,0.3,6.3,0.3,9.4
		c0,2.6,0.1,5.3-0.1,7.9c-0.2,4.1-0.6,8.3-1.4,12.3c-0.2,1.2-0.6,2.3-1.1,3.5c-0.8-0.6-1.1-1.5-1.4-2.3c-0.1-0.2,0.1-0.4,0.1-0.6
		c1.1-2.6,1.6-5.3,1.9-8.1c0.4-3.3,0.6-6.5,0.6-9.8c0-0.6,0.1-1.2,0.1-1.9c-0.1-3.5-0.1-7-0.5-10.5c-0.2-1.9-0.4-3.8-0.8-5.7
		c-0.3-1.4-0.8-2.7-1.3-4c-0.2-0.5-0.3-0.9,0.2-1.3c0.2-0.2,0.3-0.5,0.4-0.8C553.2,275.5,553.3,275.2,553.6,274.8z"/>
	<path class="st0" d="M288.7,320.7c-0.1-0.2-0.3-0.4-0.3-0.7c-0.5-1.5-0.9-3-1.1-4.6c-0.5-2.9-0.8-5.7-0.9-8.6
		c-0.1-1.5-0.1-3-0.2-4.4c-0.1-1.4-0.2-2.9-0.2-4.3c0-1.4,0.1-2.8,0.1-4.3c0-0.7,0-1.4,0-2c0.1-1.9,0.2-3.9,0.4-5.8
		c0.3-2.4,0.6-4.8,0.9-7.2c0.2-1.2,0.7-2.4,1.1-3.7c0.9,0.6,1.1,1.5,1.4,2.3c0.1,0.1,0,0.3-0.1,0.5c-1.3,3-1.8,6.2-2.1,9.4
		c-0.3,3.5-0.5,7-0.5,10.5c0,4,0.2,8,0.6,12c0.3,2.8,0.8,5.5,1.9,8.1c0.2,0.5,0.4,0.9-0.2,1.4c-0.3,0.3-0.4,0.8-0.6,1.3
		c0,0.1-0.1,0.2-0.2,0.3C288.9,320.8,288.8,320.7,288.7,320.7z"/>
	<path class="st0" d="M376.9,322.7c-1.3-8.4-1.2-43.1,0-49.5c0.5,0.7,0.9,1.3,1.3,1.9c0.1,0.1,0,0.3,0,0.4c-0.2,2.4-0.4,4.9-0.5,7.3
		c-0.1,2.1-0.2,4.1-0.2,6.2c-0.1,5.4-0.1,10.8-0.1,16.3c0,2.2,0.1,4.4,0.2,6.6c0.1,2.6,0.3,5.1,0.6,7.7c0.1,0.9,0.1,1.6-0.6,2.2
		C377.3,322,377.1,322.3,376.9,322.7z"/>
	<path class="st0" d="M465.7,273.1c0.1,1.5,0.3,2.9,0.4,4.3c0.1,2.4,0.2,4.9,0.3,7.3c0.1,3.6,0.1,7.3,0.2,10.9c0,3.5,0,6.9,0,10.4
		c0,3-0.1,6-0.2,9.1c-0.1,2.4-0.3,4.8-0.5,7.4c-0.6-0.4-0.7-1-1.1-1.3c-0.4-0.4-0.4-0.9-0.3-1.4c0.4-3.2,0.4-6.4,0.6-9.6
		c0.3-6.5,0.1-12.9,0.1-19.4c0-3-0.1-5.9-0.2-8.9c-0.1-2-0.2-4-0.5-5.9c-0.1-0.8,0-1.5,0.6-2c0.2-0.2,0.4-0.5,0.6-0.8
		C465.5,273.2,465.5,273.2,465.7,273.1z"/>
	<path class="st0" d="M456.3,322.4c-0.5-0.7-0.8-1.2-1.1-1.7c-0.1-0.2-0.1-0.5-0.1-0.8c0.1-2.9,0.4-5.8,0.4-8.7
		c0.1-7,0.1-14,0.2-21.1c0-1.4,0-2.8-0.1-4.3c-0.1-3.3-0.3-6.6-0.5-9.9c0-0.7-0.1-1.3,0.5-1.8c0.3-0.2,0.4-0.6,0.7-1
		c0.1,0.2,0.2,0.4,0.2,0.5c0.1,1.5,0.2,2.9,0.3,4.4c0.1,2.4,0.2,4.9,0.2,7.3c0.1,6.1,0.1,12.1,0.2,18.2c0,1.8,0,3.6-0.1,5.3
		c0,2.2-0.1,4.3-0.2,6.5c-0.1,2-0.2,4.1-0.4,6.1C456.5,321.8,456.4,322,456.3,322.4z"/>
	<path class="st0" d="M386.2,273.4c0.4,0.6,0.8,1.1,1.1,1.6c0.1,0.2,0.1,0.5,0.1,0.7c-0.4,4.4-0.5,8.9-0.5,13.3
		c0,5.1-0.1,10.2-0.1,15.3c0,2.9,0.1,5.8,0.2,8.7c0.1,2.4,0.3,4.9,0.5,7.3c0,0.2,0,0.5-0.1,0.7c-0.3,0.5-0.7,0.9-1.2,1.5
		c-0.1-0.7-0.2-1.2-0.2-1.7c-0.1-1.8-0.2-3.7-0.2-5.5c-0.1-3.6-0.1-7.1-0.2-10.7c-0.1-4.1-0.1-8.2-0.1-12.3c0-3.3,0.1-6.6,0.2-9.9
		c0.1-3,0.3-5.9,0.5-8.9C386,273.6,386.1,273.6,386.2,273.4z"/>
	<path class="st0" d="M447.1,273.3c0.1,1.4,0.2,2.7,0.2,3.9c0.1,3.1,0.1,6.3,0.2,9.4c0.1,5.9,0.1,11.7,0.1,17.6c0,4-0.1,8-0.2,12
		c0,1.9-0.2,3.9-0.3,5.9c-0.8-0.5-1.3-1.5-1.3-2.4c0.1-1.4,0.1-2.9,0.2-4.3c0.1-1.3,0.2-2.5,0.2-3.8c0-7.2,0.1-14.3,0.1-21.5
		c0-1.9,0-3.8-0.1-5.7c-0.1-3-0.3-6-0.4-9c0-0.2,0-0.4,0.1-0.6C446.2,274.3,446.6,273.9,447.1,273.3z"/>
	<path class="st0" d="M395.4,273.5c0.8,1,1.5,1.9,1.1,3.2c-0.2,0.6-0.1,1.2-0.1,1.8c-0.1,3.3-0.1,6.5-0.2,9.8
		c-0.1,5.6-0.1,11.3-0.1,16.9c0,3.2,0.1,6.4,0.2,9.6c0.1,1.9,0.2,3.7,0.3,5.6c0,0.2,0,0.4-0.1,0.6c-0.3,0.5-0.7,0.9-1.2,1.5
		c0-0.4-0.1-0.7-0.1-1c-0.1-1.7-0.2-3.4-0.2-5.1c-0.1-9.4-0.1-18.8-0.2-28.2c0-1.8,0-3.6,0.1-5.4c0.1-2.8,0.2-5.7,0.4-8.5
		C395.3,274,395.4,273.8,395.4,273.5z"/>
	<path class="st0" d="M437.7,322c-0.8-1-1.2-1.8-1.2-2.9c0.1-4,0.2-8.1,0.2-12.1c0-5.8,0.1-11.7,0.1-17.5c0-1.4,0-2.8-0.1-4.3
		c-0.1-3.3-0.2-6.6-0.2-9.9c0-0.2,0-0.4,0.1-0.5c0.3-0.4,0.6-0.8,1-1.2c0.2,0.4,0.2,0.8,0.2,1.2c0.1,5.1,0.1,10.2,0.2,15.3
		c0,4.3,0.1,8.6,0.1,12.9c0,3.6-0.1,7.1-0.1,10.7c0,1.3,0,2.7-0.1,4c0,1.2-0.1,2.3-0.1,3.5C437.8,321.4,437.8,321.6,437.7,322z"/>
	<path class="st0" d="M404.7,322c-0.1-1.4-0.1-2.7-0.1-4.1c-0.1-3.9-0.1-7.7-0.1-11.6c0-4.4-0.1-8.8-0.1-13.2c0-3.6,0-7.3,0.1-10.9
		c0-2.5,0.1-4.9,0.2-7.4c0-0.3,0.1-0.7,0.2-1.3c0.6,1,1.2,1.6,1.2,2.6c-0.1,4.1-0.2,8.2-0.2,12.3c-0.1,5.8-0.1,11.6-0.1,17.4
		c0,3.8,0.1,7.6,0.2,11.5c0,0.9,0.1,1.8,0.1,2.7c0,0.2,0,0.5-0.1,0.7c-0.3,0.4-0.6,0.8-0.9,1.1C404.8,322,404.7,322,404.7,322z"/>
	<path class="st0" d="M434.3,321.3c0.1-1.4,0.1-2.8,0.2-4.3c0-0.1,0-0.3,0-0.4c0-9.7,0-19.4,0.1-29.2c0-2.8,0-5.6-0.1-8.4
		c0-1.4-0.1-2.7-0.1-4.1c0-0.1,0-0.3,0-0.6c0.4,0.3,0.6,0.6,1,1c0.1,1.3,0.1,2.6,0.2,4c0.1,10.2,0.1,20.3,0.1,30.5
		c0,3-0.1,6-0.2,9.1c0,0.4-0.1,0.9-0.1,1.3c-0.1,0.6-0.6,0.8-0.9,1.1C434.4,321.4,434.3,321.3,434.3,321.3z"/>
	<path class="st0" d="M443.7,321.2c0-0.7,0-1.3,0-1.8c0.1-2.6,0.1-5.2,0.2-7.8c0-3.9,0.1-7.8,0.1-11.6c0-4.8,0-9.6,0-14.4
		c0-1.8,0-3.6-0.1-5.3c0-1.6-0.1-3.1-0.2-4.7c0-0.2,0-0.5,0-0.7c0.9,0.3,1,0.9,1.1,1.7c0.1,3.1,0.2,6.2,0.2,9.2
		c0.1,2.9,0.1,5.7,0.1,8.6c0,4.7,0,9.4,0,14c0,2.7-0.1,5.3-0.2,8c0,1.1-0.1,2.2-0.2,3.3C444.7,320.3,444.5,320.9,443.7,321.2z"/>
	<path class="st0" d="M408,274.3c0,15.7,0,31.3,0,46.7c-0.2-0.2-0.4-0.5-0.6-0.9c-0.1,0.1-0.2,0.2-0.3,0.3c-0.1-1.4-0.2-2.8-0.2-4.2
		c0-10.5-0.1-21-0.1-31.6c0-1.7,0-3.3,0.1-5c0-1.2,0.2-2.4,0.1-3.6C407,275.2,407.4,274.7,408,274.3z"/>
	<path class="st0" d="M398.8,321.1c-1-0.5-1.1-1.2-1.1-2c0-2.9-0.2-5.9-0.3-8.8c-0.1-3.5-0.1-6.9-0.1-10.4c0-4.4,0-8.7,0-13.1
		c0-3,0.2-6,0.2-9.1c0-0.6,0.1-1.2,0.1-1.9c0-0.7,0.4-1.1,1-1.5c0,0.6,0,1.2,0,1.7c-0.1,2.5-0.1,5-0.2,7.5
		c-0.1,4.2-0.1,8.4-0.1,12.6c0,4.7,0,9.4,0,14c0,2.8,0.1,5.5,0.2,8.3C398.7,319.3,398.8,320.1,398.8,321.1z"/>
	<path class="st0" d="M389.4,320.7c-0.8-0.2-0.9-0.7-0.9-1.4c-0.1-2.1-0.3-4.1-0.3-6.2c-0.1-3.8-0.1-7.6-0.2-11.4
		c0-2.1-0.1-4.3-0.1-6.4c0-3.8,0.1-7.6,0.2-11.4c0.1-2.7,0.3-5.4,0.4-8.1c0-0.6,0.4-0.9,0.9-1.3c0,1.1,0,2.2,0,3.2
		c0,1.5-0.1,3.1-0.2,4.6c-0.1,6.9-0.1,13.8-0.2,20.7c0,2.7,0,5.3,0.1,8c0.1,3,0.2,6.1,0.3,9.1C389.4,320.4,389.4,320.6,389.4,320.7z
		"/>
	<path class="st0" d="M453,321.2c0.1-2.2,0.2-4.2,0.3-6.2c0.1-1.4,0.1-2.7,0.1-4.1c0-7,0.1-14,0.1-21c0-3-0.1-6-0.2-9
		c-0.1-1.9-0.2-3.8-0.3-5.7c0-0.1,0-0.2,0-0.3c0.7,0.1,0.9,0.5,1,1.2c0.2,3.5,0.4,7,0.4,10.5c0,4.6,0.1,9.1,0.2,13.7
		c0,2.5,0,5-0.1,7.6c0,2-0.1,4.1-0.2,6.1c-0.1,1.9-0.2,3.8-0.3,5.8C453.9,320.4,453.6,320.8,453,321.2z"/>
	<path class="st0" d="M380.1,274.7c-0.1,1.5-0.1,2.8-0.2,4.1c0,0.9-0.1,1.7-0.1,2.6c-0.1,4-0.1,8-0.2,12c0,2-0.1,4-0.1,6
		c0,4,0.1,7.9,0.2,11.9c0.1,2.8,0.2,5.6,0.3,8.4c0,0.2,0.1,0.5,0.1,0.7c-0.8,0.1-0.8,0.1-0.8-0.6c-0.2-2.5-0.4-5.1-0.5-7.6
		c-0.1-3.1-0.1-6.2-0.2-9.3c0-3-0.1-5.9-0.1-8.9c0-3,0-6,0.2-9c0.1-3,0.4-6.1,0.6-9.1C379.3,275.4,379.6,275.1,380.1,274.7z"/>
	<path class="st0" d="M462.4,321c0-0.7,0-1.3,0-1.9c0.1-3.3,0.2-6.7,0.3-10c0.1-2.1,0.1-4.3,0.1-6.4c0-2.3,0.1-4.6,0.1-6.8
		c0-2.7,0-5.3-0.1-8c0-2.1-0.1-4.2-0.2-6.3c-0.1-1.9-0.2-3.9-0.3-5.8c0-0.1,0-0.3,0-0.4c0.6-0.1,0.8,0.2,0.8,0.7
		c0.1,2,0.3,3.9,0.4,5.9c0.1,3.4,0.2,6.8,0.3,10.2c0.1,3.2,0.1,6.5,0.1,9.7c0,3.7-0.1,7.3-0.2,11c-0.1,2.3-0.3,4.6-0.5,6.9
		C463.2,320.2,463,320.6,462.4,321z"/>
	<path class="st0" d="M420.5,322.1c0-16.1,0-32.2,0-48.3c0.1,0,0.1,0,0.1,0c0,0,0.1,0,0.1,0.1c0,16,0,32.1,0,48.1
		c0,0.1-0.1,0.1-0.1,0.2C420.6,322.1,420.5,322.1,420.5,322.1z"/>
	<path class="st0" d="M537.5,274.3c1.3-0.8,2.7-1.1,4.1-1.1c1.5,0,2.7,0.8,3.9,1.6c0,0.5-0.5,0.7-0.9,0.9c-0.6,0.2-1.3,0.3-1.9,0.4
		c-1.2,0.2-2.4,0-3.6-0.4C538.5,275.4,537.8,275.2,537.5,274.3z"/>
	<path class="st0" d="M296.9,274.8c1.4-0.9,2.7-1.6,4.3-1.5c0.9,0,1.9,0.3,2.8,0.6c0.3,0.1,0.6,0.5,1,0.9c-0.5,0.3-0.9,0.6-1.3,0.8
		c-1.9,0.7-3.7,0.8-5.6,0.2c-0.3-0.1-0.6-0.3-0.8-0.5C297.1,275.2,297,275,296.9,274.8z"/>
	<path class="st0" d="M422,273.5c0,16.1,0,32.3,0,48.4c0,0-0.1,0-0.1,0c0-16.1,0-32.3,0-48.4C421.9,273.6,421.9,273.5,422,273.5z"/>
	<path d="M351,297.9c-0.5,1.7-0.4,3.6-1.6,5.2c-0.8,1-1.5,2.1-2.6,2.9c-1.7,1.3-3.6,1.8-5.6,2.1c-0.4,0.1-0.8,0.1-1.1,0
		c-1-0.2-1.9-0.3-2.9-0.6c-0.3-0.1-0.7-0.3-1-0.4c-0.9-0.6-1.7-1.1-2.6-1.7c-0.2-0.1-0.3-0.3-0.4-0.4c-0.7-1-1.3-2-2-3
		c-0.1-0.2-0.2-0.5-0.3-0.7c-0.2-0.8-0.3-1.6-0.5-2.3c-0.1-0.6-0.2-1.1,0-1.7c0.2-0.9,0.3-1.8,0.5-2.7c0.1-0.3,0.2-0.6,0.4-0.9
		c0.6-0.9,1.2-1.8,1.8-2.7c0.1-0.1,0.1-0.2,0.2-0.3c1.2-0.8,2.2-1.7,3.5-2.2c1.2-0.5,2.5-0.6,3.8-0.8c0.2,0,0.5,0.1,0.8,0.1
		c0.4,0.1,0.9,0.2,1.3,0.3c1.2,0.1,2.3,0.7,3.3,1.4c1.2,0.8,2.2,1.8,3.1,3c0.9,1.3,1.3,2.6,1.6,4.1
		C350.8,296.9,350.9,297.4,351,297.9z M340.7,307c5.5-0.4,8.7-3.7,9.2-9.2c-0.5-5.5-3.7-8.7-9.2-9.2c-5.3,0.4-8.7,3.6-9.1,9.1
		C331.9,303.2,335.2,306.6,340.7,307z"/>
	<path d="M512.1,297.9c-0.5,1.7-0.4,3.5-1.5,5c-1,1.4-2,2.7-3.6,3.6c-0.9,0.6-1.9,1-2.9,1.2c-1.7,0.4-3.3,0.3-5-0.1
		c-0.9-0.2-1.7-0.6-2.5-1.1c-1.7-1-2.9-2.3-3.8-3.9c-0.4-0.7-0.6-1.4-0.9-2.1c-0.6-1.9-0.5-3.8,0.1-5.7c0.2-0.6,0.4-1.2,0.7-1.7
		c1.8-2.7,1.8-2.7,4.5-4.5c0.4-0.3,0.9-0.4,1.4-0.6c0.2-0.1,0.5-0.1,0.7-0.2c2-0.7,4-0.2,5.9,0.2c0.3,0.1,0.7,0.3,1,0.5
		c0.3,0.2,0.6,0.5,1,0.7c2,0.9,2.9,2.7,4,4.4c0.1,0.1,0.1,0.2,0.2,0.3C511.6,295.3,511.8,296.6,512.1,297.9z M501.7,307
		c0.3-0.1,0.6-0.1,0.9-0.2c2.8-0.5,2.8-0.5,5.1-2.1c0.4-0.3,0.7-0.6,1-1c1.1-1.4,1.8-2.9,2.1-4.7c0.1-0.8,0.1-1.6,0-2.4
		c-0.2-1.8-1-3.3-2.1-4.7c-0.2-0.3-0.4-0.6-0.7-0.8c-1.4-1-2.9-2.1-4.8-2.2c-0.2,0-0.4-0.1-0.6-0.1c-0.6-0.2-1.1-0.1-1.7,0
		c-2.8,0.5-2.8,0.5-5.1,2.1c-0.4,0.2-0.7,0.6-0.9,0.9c-1.2,1.4-1.9,3-2.1,4.9c0,0.1,0,0.2-0.1,0.3c-0.1,0.6-0.1,1.1,0,1.7
		c0.2,0.8,0.3,1.5,0.5,2.3c0,0.2,0.1,0.5,0.2,0.7c1,1.5,1.9,2.9,3.5,3.9C498.4,306.5,500.1,306.6,501.7,307z"/>
	<path d="M233.3,278.6c-1,6.4-1.6,12.8-1.6,19.2c0,6.4,0.6,12.8,1.6,19.2c-0.1,0-0.1,0-0.2,0.1c-0.1-0.1-0.3-0.3-0.3-0.5
		c-0.7-1.6-1.3-3.1-1.7-4.8c-0.8-2.8-1-5.7-1.2-8.6c-0.1-2.3-0.2-4.6-0.2-6.9c0-3.4,0.3-6.9,0.8-10.2c0.2-1.5,0.7-3,1.1-4.5
		c0.3-0.9,0.8-1.8,1.2-2.7c0.1-0.1,0.2-0.3,0.3-0.4C233.2,278.6,233.3,278.6,233.3,278.6z"/>
	<path d="M609.2,317c0.1-0.8,0.1-1.7,0.3-2.5c0.4-1.9,0.5-3.7,0.7-5.6c0.4-2.9,0.4-5.9,0.6-8.9c0.1-2.8-0.1-5.7-0.1-8.5
		c0-1.9-0.5-3.8-0.5-5.6c-0.1-2.2-0.7-4.3-0.8-6.4c0-0.2,0-0.5,0-0.8c0.2,0.2,0.4,0.3,0.4,0.5c0.7,1.6,1.3,3.2,1.7,4.9
		c0.9,3.5,1.1,7.1,1.2,10.7c0,1.5,0.1,3,0.1,4.4c-0.1,2.9-0.3,5.8-0.6,8.8c-0.2,2.1-0.9,4-1.3,6.1c-0.1,0.5-0.4,0.9-0.6,1.4
		c-0.2,0.5-0.4,0.9-0.6,1.4c-0.1,0.1-0.2,0.3-0.3,0.4C609.3,317,609.3,317,609.2,317z"/>
	<path d="M590,317.1c0-0.4,0-0.9,0-1.3c0.1-1,0.3-2,0.4-3c0.2-1.6,0.3-3.2,0.5-4.7c0.3-2.3,0.4-4.7,0.4-7c0-1.3,0.1-2.6,0.1-3.9
		c-0.1-3.6-0.1-7.3-0.6-10.9c-0.3-2.1-0.5-4.1-0.7-6.2c-0.1-0.5,0-1,0-1.7c0.2,0.2,0.3,0.3,0.4,0.4c1.1,1.9,1.7,3.9,2,6
		c0.3,2,0.5,4,0.7,6.1c0.1,1.5,0.1,3,0.2,4.4c0,0.9,0.2,1.9,0.1,2.8c-0.2,2.8-0.1,5.7-0.4,8.5c-0.3,2.4-0.7,4.8-1.2,7.1
		c-0.2,0.8-0.7,1.6-1.1,2.4c-0.2,0.3-0.3,0.6-0.5,1C590.2,317.2,590.1,317.2,590,317.1z"/>
	<path d="M252.5,278.4c-0.1,1.2-0.1,2.4-0.3,3.4c-0.2,1.6-0.4,3.2-0.6,4.7c-0.5,4.3-0.6,8.7-0.5,13c0,3.5,0.2,7,0.7,10.5
		c0.3,2.3,0.5,4.6,0.8,7.1c-0.3-0.2-0.5-0.2-0.5-0.3c-1.4-2.3-2-4.9-2.4-7.6c-0.2-1.7-0.4-3.5-0.5-5.2c-0.1-1.2-0.1-2.4-0.2-3.5
		c0-1.9-0.1-3.7,0-5.6c0.1-3.6,0.3-7.1,1-10.7c0.2-0.8,0.3-1.7,0.6-2.5c0.4-1.1,1-2.2,1.5-3.3C252.2,278.6,252.3,278.6,252.5,278.4z
		"/>
	<path d="M570.8,317.8c0-0.1-0.1-0.3,0-0.4c0.1-1.4,0.2-2.9,0.4-4.3c0.2-1.8,0.4-3.6,0.6-5.5c0.3-3.8,0.4-7.6,0.4-11.4
		c0-3.8-0.2-7.6-0.7-11.3c-0.2-1.6-0.4-3.3-0.5-4.9c-0.1-0.6,0-1.3,0-2c0.2,0.1,0.3,0.1,0.3,0.2c1.1,1.9,2,3.9,2.2,6.1
		c0.2,2.2,0.5,4.3,0.7,6.5c0.1,1.4,0.1,2.9,0.2,4.3c0,0.9,0.1,1.8,0.1,2.7c0,1.3,0,2.7-0.1,4c-0.1,2-0.2,4-0.4,6
		c-0.2,2.1-0.5,4.2-1,6.2c-0.2,1-0.9,2-1.3,3c-0.2,0.3-0.3,0.6-0.5,0.9C570.9,317.8,570.9,317.8,570.8,317.8z"/>
	<path d="M271.8,318.1c-0.2-0.2-0.4-0.4-0.5-0.6c-1.2-2-1.9-4.2-2.2-6.5c-0.4-2.8-0.7-5.6-0.8-8.4c0-1.4-0.2-2.8-0.2-4.3
		c0-1.6,0.1-3.2,0.2-4.8c0.1-1.5,0.2-3,0.2-4.5c0.1-2.5,0.5-4.9,1.1-7.3c0.2-1,0.9-2,1.3-3c0.2-0.4,0.3-1,0.8-1.2
		c-0.1,3.8-0.9,7.4-1.1,11.2c-0.1,1.6-0.2,3.2-0.2,4.8c-0.1,1.5-0.1,3.1-0.1,4.6c0,2.4,0,4.8,0.2,7.2c0.2,2.9,0.4,5.8,0.9,8.7
		C271.7,315.4,271.7,316.7,271.8,318.1z"/>
	<path d="M616.5,316.9c2.2-12.7,2.2-25.5,0-38.2c0.1,0,0.1,0,0.2,0c0.1,0.2,0.3,0.3,0.4,0.5c0.7,1.6,1.3,3.3,1.7,5
		c0.9,3.3,1.1,6.6,1.2,10c0,1.1,0.1,2.1,0.1,3.2c0,1.2-0.1,2.3-0.1,3.5c0,0.2,0,0.5,0,0.7c0,2.8-0.3,5.5-0.8,8.2
		c-0.4,1.9-0.9,3.9-1.7,5.6c-0.3,0.5-0.5,1.1-0.7,1.6C616.6,317,616.5,317,616.5,316.9z"/>
	<path d="M226,278.7c-2.2,12.7-2.2,25.4,0,38.2c-0.4-0.1-0.5-0.3-0.6-0.6c-0.7-1.6-1.3-3.4-1.8-5.1c-0.7-2.5-0.9-5.1-1.1-7.6
		c-0.1-1.5-0.2-3.1-0.2-4.6c0-2.1-0.1-4.1,0.1-6.2c0.1-2.3,0.3-4.6,0.8-6.9c0.4-1.9,0.9-3.9,1.8-5.7c0.1-0.3,0.2-0.6,0.4-0.9
		c0.1-0.3,0.3-0.5,0.4-0.7C225.9,278.7,225.9,278.7,226,278.7z"/>
	<path d="M264.3,278.3c0,0.4,0.1,0.8,0,1.2c-0.1,1.3-0.3,2.6-0.4,3.9c-0.2,1.8-0.4,3.5-0.5,5.3c-0.2,3.2-0.3,6.4-0.4,9.6
		c0,2.5,0.1,5.1,0.2,7.6c0.2,2.7,0.6,5.3,0.9,8c0.1,1.1,0.1,2.2,0.2,3.3c0,0.1-0.1,0.1-0.1,0.2c-0.4-0.1-0.3-0.5-0.5-0.7
		c-1.5-2.1-1.8-4.5-2.1-7c-0.4-3.2-0.7-6.5-0.7-9.7c0-2-0.1-4,0-6c0.2-4,0.5-8.1,1.4-12c0.2-1,0.8-1.9,1.3-2.8
		c0.1-0.3,0.3-0.6,0.5-0.9C264.2,278.3,264.2,278.3,264.3,278.3z"/>
	<path d="M578.3,317.5c-0.3-0.7-0.3-1.4-0.2-2c0.3-2.6,0.5-5.2,0.8-7.7c0.3-2.6,0.3-5.3,0.3-7.9c0-3,0.1-6-0.1-9
		c-0.2-3-0.6-5.9-0.9-8.9c-0.1-1.1-0.1-2.2-0.2-3.4c0-0.1,0.1-0.3,0.2-0.6c0.2,0.4,0.3,0.6,0.4,0.8c0.3,0.6,0.7,1.2,1,1.9
		c0.6,1.1,0.7,2.3,0.9,3.4c0.7,3.7,1,7.4,1,11.2c0,1.1,0.1,2.1,0.1,3.2c-0.1,4-0.2,7.9-0.8,11.8c-0.2,1.1-0.3,2.2-0.6,3.2
		c-0.3,1-0.8,1.9-1.3,2.9C578.7,316.8,578.5,317.1,578.3,317.5z"/>
	<path class="st0" d="M340.7,307c-5.5-0.4-8.8-3.8-9.1-9.2c0.4-5.5,3.8-8.7,9.1-9.1c5.5,0.5,8.7,3.7,9.2,9.2
		C349.4,303.3,346.2,306.6,340.7,307z"/>
	<path class="st0" d="M501.7,307c-1.6-0.5-3.3-0.5-4.8-1.5c-1.6-1-2.5-2.5-3.5-3.9c-0.1-0.2-0.2-0.4-0.2-0.7
		c-0.2-0.8-0.3-1.5-0.5-2.3c-0.1-0.6-0.1-1.1,0-1.7c0-0.1,0.1-0.2,0.1-0.3c0.1-1.9,0.9-3.5,2.1-4.9c0.3-0.3,0.6-0.7,0.9-0.9
		c2.3-1.6,2.3-1.6,5.1-2.1c0.6-0.1,1.1-0.2,1.7,0c0.2,0.1,0.4,0.1,0.6,0.1c1.9,0.1,3.3,1.2,4.8,2.2c0.3,0.2,0.5,0.5,0.7,0.8
		c1.1,1.4,1.9,2.9,2.1,4.7c0.1,0.8,0.1,1.6,0,2.4c-0.2,1.8-0.9,3.3-2.1,4.7c-0.3,0.4-0.6,0.7-1,1c-2.3,1.6-2.3,1.6-5.1,2.1
		C502.3,306.9,502,307,501.7,307z"/>
</g>
</svg>
